<svg xmlns="http://www.w3.org/2000/svg" xmlns:xlink="http://www.w3.org/1999/xlink" viewBox="0 0 46.18 49.04"><defs><style>.cls-1{fill:url(#linear-gradient);}.cls-2{fill:url(#linear-gradient-2);}.cls-3{fill:url(#linear-gradient-3);}.cls-4{fill:url(#linear-gradient-4);}.cls-5{fill:url(#linear-gradient-5);}.cls-6{fill:url(#linear-gradient-6);}</style><linearGradient id="linear-gradient" x1="33.59" y1="21.62" x2="22.93" y2="18.83" gradientUnits="userSpaceOnUse"><stop offset="0" stop-color="#00e6c8"/><stop offset="1" stop-color="#2c2d38"/></linearGradient><linearGradient id="linear-gradient-2" x1="41.47" y1="31.1" x2="-3.89" y2="2.67" gradientUnits="userSpaceOnUse"><stop offset="0.21" stop-color="#00e6c8"/><stop offset="1" stop-color="#fff"/></linearGradient><linearGradient id="linear-gradient-3" x1="22.9" y1="37.1" x2="23.31" y2="5.53" gradientUnits="userSpaceOnUse"><stop offset="0" stop-color="#00e6c8"/><stop offset="0.19" stop-color="#0daf9d"/><stop offset="0.38" stop-color="#188079"/><stop offset="0.56" stop-color="#215c5d"/><stop offset="0.73" stop-color="#274248"/><stop offset="0.88" stop-color="#2b323c"/><stop offset="1" stop-color="#2c2d38"/></linearGradient><linearGradient id="linear-gradient-4" x1="20.63" y1="35.25" x2="35.16" y2="46.43" xlink:href="#linear-gradient"/><linearGradient id="linear-gradient-5" x1="46.59" y1="30.56" x2="34.26" y2="27.28" xlink:href="#linear-gradient"/><linearGradient id="linear-gradient-6" x1="38.76" y1="35.42" x2="-6.6" y2="6.99" gradientUnits="userSpaceOnUse"><stop offset="0.3" stop-color="#00e6c8"/><stop offset="1" stop-color="#fff"/></linearGradient></defs><g id="Layer_2" data-name="Layer 2"><g id="Layer_1-2" data-name="Layer 1"><path class="cls-1" d="M27.61,11.3h0l-4.92-1.24.81,1.44C18.94,13.28,17,20.19,20,24.42A8.27,8.27,0,0,0,21.44,26l-.59,1.09,3.95.31,0,0c4,.27,8-3.46,8.12-8.11C33.05,15.78,31.1,12.21,27.61,11.3Z"/><path class="cls-2" d="M29.11,18.68c.36-7.28-8.21-12.15-13.21-5.84-4.2,5.31-1,15.56,6.78,14.07,3.85-.73,6.28-4.48,6.43-8.23Z"/><path class="cls-3" d="M42.06,25.05c.2-8-4.52-16.54-12.81-18.29S13.39,10.44,10.49,18a20.44,20.44,0,0,0,2.17,18.92l-4.9.15C.85,27.52,3.87,11.93,14.58,6.47,23.36,2,33.35,7,37.1,15.66a21.84,21.84,0,0,1-2.7,21.41L38,36.92a20.26,20.26,0,0,0,4.1-11.87Z"/><path class="cls-4" d="M37.31,36.37l.65.55-3.56.15c-7.81-6.83-18.77-6.6-26.64,0l4.9-.15c7.23-6.07,17.23-6.52,24.65-.55Z"/><path class="cls-5" d="M46.15,25.65C45.69,35.72,39,45.92,28.67,48a22.4,22.4,0,0,1-2.5.35,18,18,0,0,0,2.1-.73c9.11-3.75,14.54-13.4,14.77-23,.2-7.87-3.24-16-9.51-20.68A23,23,0,0,1,46.15,25.65Z"/><path class="cls-6" d="M33.53,3.9A19.45,19.45,0,0,0,26.34.57c-21.68-5-33.13,23.87-22,39.61a20.21,20.21,0,0,0,21.87,8.14,18,18,0,0,0,2.1-.73c9.11-3.75,14.54-13.4,14.77-23C43.24,16.71,39.8,8.54,33.53,3.9Zm5.18,20.68A21.27,21.27,0,0,1,34.4,37.07c-7.76-6.79-18.67-6.62-26.51-.1A28.43,28.43,0,0,1,6.25,18.44c.8-3.15,3.68-11,11.59-13.07a13.77,13.77,0,0,1,7.38.14C33.8,8,38.92,16.16,38.71,24.58Z"/></g></g></svg>