<svg xmlns="http://www.w3.org/2000/svg" xmlns:xlink="http://www.w3.org/1999/xlink" viewBox="0 0 41.47 28.01"><defs><style>.cls-1{fill:url(#linear-gradient);}.cls-2{fill:url(#linear-gradient-2);}.cls-3{fill:url(#linear-gradient-3);}.cls-4{fill:url(#linear-gradient-4);}.cls-5{fill:url(#linear-gradient-5);}.cls-6{fill:url(#linear-gradient-6);}.cls-7{isolation:isolate;}.cls-8{clip-path:url(#clip-path);}.cls-9{fill:url(#linear-gradient-8);}.cls-10{fill:url(#linear-gradient-9);}.cls-11{fill:url(#linear-gradient-10);}.cls-12{fill:url(#linear-gradient-11);}.cls-13{clip-path:url(#clip-path-2);}.cls-14{fill:url(#linear-gradient-13);}.cls-15{clip-path:url(#clip-path-3);}.cls-16{fill:url(#linear-gradient-15);}.cls-17{fill:url(#linear-gradient-16);}.cls-18{fill:url(#linear-gradient-17);}.cls-19{clip-path:url(#clip-path-4);}.cls-20{fill:url(#linear-gradient-19);}.cls-21{clip-path:url(#clip-path-5);}.cls-22{fill:url(#linear-gradient-21);}.cls-23{fill:url(#linear-gradient-22);}.cls-24{clip-path:url(#clip-path-6);}.cls-25{fill:url(#linear-gradient-24);}.cls-26{fill:url(#linear-gradient-25);}.cls-27{fill:url(#linear-gradient-26);}.cls-28{fill:url(#linear-gradient-27);}.cls-29{fill:url(#linear-gradient-28);}.cls-30{fill:url(#linear-gradient-29);}.cls-31{fill:url(#linear-gradient-30);}.cls-32{fill:url(#linear-gradient-31);}.cls-33{fill:url(#linear-gradient-32);}.cls-34{fill:url(#linear-gradient-33);}.cls-35{fill:url(#linear-gradient-34);}.cls-36{fill:url(#linear-gradient-35);}.cls-37{fill:url(#linear-gradient-36);}</style><linearGradient id="linear-gradient" x1="1.1" y1="17.43" x2="5.93" y2="17.43" gradientUnits="userSpaceOnUse"><stop offset="0" stop-color="#00e6c8"/><stop offset="1" stop-color="#2c2d38"/></linearGradient><linearGradient id="linear-gradient-2" x1="1.91" y1="19.48" x2="7.72" y2="19.48" xlink:href="#linear-gradient"/><linearGradient id="linear-gradient-3" x1="1.39" y1="8.99" x2="6.1" y2="8.99" xlink:href="#linear-gradient"/><linearGradient id="linear-gradient-4" x1="2.05" y1="11.11" x2="7.91" y2="11.11" xlink:href="#linear-gradient"/><linearGradient id="linear-gradient-5" x1="1.72" y1="0.35" x2="6.28" y2="0.35" xlink:href="#linear-gradient"/><linearGradient id="linear-gradient-6" x1="2.19" y1="2.56" x2="8.11" y2="2.56" xlink:href="#linear-gradient"/><clipPath id="clip-path"><path class="cls-1" d="M1.1,18.22l4-1.49.18-.05a.63.63,0,0,1,.19,0h.2l.22,0-4,1.49-.22,0H1.48a.63.63,0,0,0-.19,0Z"/></clipPath><linearGradient id="linear-gradient-8" x1="1.1" y1="17.48" x2="5.14" y2="17.48" xlink:href="#linear-gradient"/><linearGradient id="linear-gradient-9" x1="1.1" y1="17.44" x2="5.37" y2="17.44" xlink:href="#linear-gradient"/><linearGradient id="linear-gradient-10" x1="1.34" y1="17.4" x2="5.69" y2="17.4" xlink:href="#linear-gradient"/><linearGradient id="linear-gradient-11" x1="1.67" y1="17.4" x2="5.93" y2="17.4" xlink:href="#linear-gradient"/><clipPath id="clip-path-2"><path class="cls-2" d="M6.71,20.62l-4,1.68.12-.06L3,22.17l.11-.08L3.21,22a1.68,1.68,0,0,0,.24-.29,1.74,1.74,0,0,0,.18-.33A1.66,1.66,0,0,0,3.74,21a2,2,0,0,0,0-.43,2.32,2.32,0,0,0-.12-.86,2.54,2.54,0,0,0-.16-.38A2.92,2.92,0,0,0,3.26,19,2.13,2.13,0,0,0,3,18.65a1.91,1.91,0,0,0-.32-.24,2.21,2.21,0,0,0-.35-.16,1.59,1.59,0,0,0-.39-.1l4-1.49a2.22,2.22,0,0,1,.37.09,1.5,1.5,0,0,1,.34.16,2.18,2.18,0,0,1,.31.22,2.61,2.61,0,0,1,.27.3,2.54,2.54,0,0,1,.23.34,2.39,2.39,0,0,1,.15.37,1.37,1.37,0,0,1,.09.4,2.77,2.77,0,0,1,0,.42,2.7,2.7,0,0,1,0,.41,1.89,1.89,0,0,1-.1.36,1.65,1.65,0,0,1-.18.32,1.18,1.18,0,0,1-.23.27.44.44,0,0,1-.11.09l-.11.08a.41.41,0,0,1-.11.07Z"/></clipPath><linearGradient id="linear-gradient-13" x1="4.12" y1="17.32" x2="5.56" y2="21.28" gradientUnits="userSpaceOnUse"><stop offset="0" stop-color="#00e6c8"/><stop offset="0.57" stop-color="#2c2d38"/><stop offset="1" stop-color="#197d76"/></linearGradient><clipPath id="clip-path-3"><path class="cls-3" d="M1.39,9.56,5.47,8.47l.15,0h.31l.17,0-4,1.09H1.71l-.16,0Z"/></clipPath><linearGradient id="linear-gradient-15" x1="1.39" y1="9" x2="5.55" y2="9" xlink:href="#linear-gradient"/><linearGradient id="linear-gradient-16" x1="1.48" y1="8.98" x2="5.86" y2="8.98" xlink:href="#linear-gradient"/><linearGradient id="linear-gradient-17" x1="1.81" y1="8.97" x2="6.1" y2="8.97" xlink:href="#linear-gradient"/><clipPath id="clip-path-4"><path class="cls-4" d="M6.74,12.51l-4,1.29.16-.06.16-.09a.83.83,0,0,0,.15-.11l.15-.13a2.26,2.26,0,0,0,.25-.29,2.31,2.31,0,0,0,.18-.35,2.22,2.22,0,0,0,.11-.39,3.13,3.13,0,0,0,0-.44,3.24,3.24,0,0,0,0-.45c0-.15-.06-.29-.1-.42a2.83,2.83,0,0,0-.17-.4,3.75,3.75,0,0,0-.24-.36A2.13,2.13,0,0,0,3.12,10a1.72,1.72,0,0,0-.32-.23,2,2,0,0,0-.36-.17,1.59,1.59,0,0,0-.39-.08L6.1,8.43a1.61,1.61,0,0,1,.38.08,1.47,1.47,0,0,1,.34.15,2.18,2.18,0,0,1,.31.22,2.68,2.68,0,0,1,.28.3,2.54,2.54,0,0,1,.23.34,2.43,2.43,0,0,1,.16.37,2.88,2.88,0,0,1,.09.4,3.1,3.1,0,0,1,0,.43,2.72,2.72,0,0,1,0,.42,2.11,2.11,0,0,1-.11.38,1.74,1.74,0,0,1-.18.33,1.61,1.61,0,0,1-.24.28.86.86,0,0,1-.14.13l-.14.1-.16.08Z"/></clipPath><linearGradient id="linear-gradient-19" x1="4.14" y1="8.76" x2="5.65" y2="12.9" xlink:href="#linear-gradient-13"/><clipPath id="clip-path-5"><path class="cls-5" d="M1.72.7,5.83,0h.45L2.19.68H1.84Z"/></clipPath><linearGradient id="linear-gradient-21" x1="1.72" y1="0.35" x2="6.04" y2="0.35" xlink:href="#linear-gradient"/><linearGradient id="linear-gradient-22" x1="1.94" y1="0.34" x2="6.28" y2="0.34" xlink:href="#linear-gradient"/><clipPath id="clip-path-6"><path class="cls-6" d="M6.74,4.21,2.69,5.1A2,2,0,0,0,2.92,5l.21-.1.2-.14.18-.16a2.6,2.6,0,0,0,.26-.32A2,2,0,0,0,4,4a2.34,2.34,0,0,0,.11-.4,2.15,2.15,0,0,0,0-.45,2.33,2.33,0,0,0,0-.46A3,3,0,0,0,4,2.22a2,2,0,0,0-.17-.4,2.82,2.82,0,0,0-.24-.36,2.16,2.16,0,0,0-.29-.31A2.19,2.19,0,0,0,3,.92,1.89,1.89,0,0,0,2.59.76a2.57,2.57,0,0,0-.4-.08L6.28,0a1.59,1.59,0,0,1,.38.07A2.17,2.17,0,0,1,7,.23a1.6,1.6,0,0,1,.31.22A1.94,1.94,0,0,1,7.6.74a1.92,1.92,0,0,1,.23.35A1.73,1.73,0,0,1,8,1.46a2,2,0,0,1,.1.41,3.17,3.17,0,0,1,0,.44,3,3,0,0,1,0,.43C8,2.88,8,3,8,3.13a2.21,2.21,0,0,1-.18.34,1.42,1.42,0,0,1-.25.3.93.93,0,0,1-.18.16,1.22,1.22,0,0,1-.19.12l-.2.1A.79.79,0,0,1,6.74,4.21Z"/></clipPath><linearGradient id="linear-gradient-24" x1="4.14" y1="-0.03" x2="5.81" y2="4.57" xlink:href="#linear-gradient-13"/><linearGradient id="linear-gradient-25" x1="45.08" y1="26.17" x2="2.67" y2="14.19" xlink:href="#linear-gradient"/><linearGradient id="linear-gradient-26" x1="41.46" y1="30.35" x2="37.58" y2="22.09" xlink:href="#linear-gradient"/><linearGradient id="linear-gradient-27" x1="47.44" y1="17.81" x2="5.03" y2="5.84" xlink:href="#linear-gradient"/><linearGradient id="linear-gradient-28" x1="42.38" y1="20.22" x2="38.01" y2="13.26" xlink:href="#linear-gradient"/><linearGradient id="linear-gradient-29" x1="41.93" y1="5.12" x2="6.56" y2="-0.95" xlink:href="#linear-gradient"/><linearGradient id="linear-gradient-30" x1="43.91" y1="13.1" x2="38.89" y2="3.96" xlink:href="#linear-gradient"/><linearGradient id="linear-gradient-31" x1="21.32" y1="41.48" x2="-14.21" y2="2.71" gradientUnits="userSpaceOnUse"><stop offset="0.29" stop-color="#00e6c8"/><stop offset="1" stop-color="#fff"/></linearGradient><linearGradient id="linear-gradient-32" x1="25.67" y1="37.49" x2="-9.86" y2="-1.28" xlink:href="#linear-gradient-31"/><linearGradient id="linear-gradient-33" x1="30.12" y1="33.41" x2="-5.41" y2="-5.36" xlink:href="#linear-gradient-31"/><linearGradient id="linear-gradient-34" x1="31.08" y1="32.53" x2="-4.45" y2="-6.24" xlink:href="#linear-gradient-31"/><linearGradient id="linear-gradient-35" x1="35.84" y1="28.17" x2="0.31" y2="-10.6" xlink:href="#linear-gradient-31"/><linearGradient id="linear-gradient-36" x1="40.71" y1="23.71" x2="5.16" y2="-15.07" xlink:href="#linear-gradient-31"/></defs><g id="Layer_2" data-name="Layer 2"><g id="Layer_1-2" data-name="Layer 1"><g class="cls-7"><g class="cls-7"><path class="cls-1" d="M1.1,18.22l4-1.49.18-.05a.63.63,0,0,1,.19,0h.2l.22,0-4,1.49-.22,0H1.48a.63.63,0,0,0-.19,0Z"/><g class="cls-8"><g class="cls-7"><polyline class="cls-9" points="1.09 18.22 5.14 16.73 5.14 16.73 5.14 16.73 5.14 16.73 5.14 16.73 1.1 18.22 1.1 18.22 1.1 18.22 1.1 18.22 1.09 18.22"/><path class="cls-10" d="M1.1,18.22l4-1.49.06,0,.06,0h.11l-4,1.49H1.22l-.06,0-.06,0"/><path class="cls-11" d="M1.34,18.16l4-1.49.08,0h.24l-4,1.49H1.42l-.08,0"/><path class="cls-12" d="M1.67,18.13l4-1.49h.24l-4,1.49H1.67"/></g></g></g><g class="cls-7"><path class="cls-2" d="M6.71,20.62l-4,1.68.12-.06L3,22.17l.11-.08L3.21,22a1.68,1.68,0,0,0,.24-.29,1.74,1.74,0,0,0,.18-.33A1.66,1.66,0,0,0,3.74,21a2,2,0,0,0,0-.43,2.32,2.32,0,0,0-.12-.86,2.54,2.54,0,0,0-.16-.38A2.92,2.92,0,0,0,3.26,19,2.13,2.13,0,0,0,3,18.65a1.91,1.91,0,0,0-.32-.24,2.21,2.21,0,0,0-.35-.16,1.59,1.59,0,0,0-.39-.1l4-1.49a2.22,2.22,0,0,1,.37.09,1.5,1.5,0,0,1,.34.16,2.18,2.18,0,0,1,.31.22,2.61,2.61,0,0,1,.27.3,2.54,2.54,0,0,1,.23.34,2.39,2.39,0,0,1,.15.37,1.37,1.37,0,0,1,.09.4,2.77,2.77,0,0,1,0,.42,2.7,2.7,0,0,1,0,.41,1.89,1.89,0,0,1-.1.36,1.65,1.65,0,0,1-.18.32,1.18,1.18,0,0,1-.23.27.44.44,0,0,1-.11.09l-.11.08a.41.41,0,0,1-.11.07Z"/><g class="cls-13"><path class="cls-14" d="M1.91,18.15l4-1.49a2.22,2.22,0,0,1,.37.09,1.5,1.5,0,0,1,.34.16,2.18,2.18,0,0,1,.31.22,2.61,2.61,0,0,1,.27.3,2.54,2.54,0,0,1,.23.34,2.39,2.39,0,0,1,.15.37,1.37,1.37,0,0,1,.09.4,2.77,2.77,0,0,1,0,.42,2.7,2.7,0,0,1,0,.41,1.89,1.89,0,0,1-.1.36,1.65,1.65,0,0,1-.18.32,1.18,1.18,0,0,1-.23.27.44.44,0,0,1-.11.09l-.11.08a.41.41,0,0,1-.11.07l-.12.06-4,1.68.12-.06L3,22.17l.11-.08L3.21,22a1.68,1.68,0,0,0,.24-.29,1.74,1.74,0,0,0,.18-.33A1.66,1.66,0,0,0,3.74,21a2,2,0,0,0,0-.43,2.32,2.32,0,0,0-.12-.86,2.54,2.54,0,0,0-.16-.38A2.92,2.92,0,0,0,3.26,19,2.13,2.13,0,0,0,3,18.65a1.91,1.91,0,0,0-.32-.24,2.21,2.21,0,0,0-.35-.16,1.59,1.59,0,0,0-.39-.1"/></g></g></g><g class="cls-7"><g class="cls-7"><path class="cls-3" d="M1.39,9.56,5.47,8.47l.15,0h.31l.17,0-4,1.09H1.71l-.16,0Z"/><g class="cls-15"><g class="cls-7"><path class="cls-16" d="M1.39,9.56,5.47,8.47h.08L1.48,9.54H1.39"/><path class="cls-17" d="M1.48,9.54,5.55,8.45l.07,0h.24L1.81,9.5H1.56l-.08,0"/><path class="cls-18" d="M1.81,9.5,5.86,8.41H6.1l-4,1.09H1.81"/></g></g></g><g class="cls-7"><path class="cls-4" d="M6.74,12.51l-4,1.29.16-.06.16-.09a.83.83,0,0,0,.15-.11l.15-.13a2.26,2.26,0,0,0,.25-.29,2.31,2.31,0,0,0,.18-.35,2.22,2.22,0,0,0,.11-.39,3.13,3.13,0,0,0,0-.44,3.24,3.24,0,0,0,0-.45c0-.15-.06-.29-.1-.42a2.83,2.83,0,0,0-.17-.4,3.75,3.75,0,0,0-.24-.36A2.13,2.13,0,0,0,3.12,10a1.72,1.72,0,0,0-.32-.23,2,2,0,0,0-.36-.17,1.59,1.59,0,0,0-.39-.08L6.1,8.43a1.61,1.61,0,0,1,.38.08,1.47,1.47,0,0,1,.34.15,2.18,2.18,0,0,1,.31.22,2.68,2.68,0,0,1,.28.3,2.54,2.54,0,0,1,.23.34,2.43,2.43,0,0,1,.16.37,2.88,2.88,0,0,1,.09.4,3.1,3.1,0,0,1,0,.43,2.72,2.72,0,0,1,0,.42,2.11,2.11,0,0,1-.11.38,1.74,1.74,0,0,1-.18.33,1.61,1.61,0,0,1-.24.28.86.86,0,0,1-.14.13l-.14.1-.16.08Z"/><g class="cls-19"><path class="cls-20" d="M2.05,9.52,6.1,8.43a1.61,1.61,0,0,1,.38.08,1.47,1.47,0,0,1,.34.15,2.18,2.18,0,0,1,.31.22,2.68,2.68,0,0,1,.28.3,2.54,2.54,0,0,1,.23.34,2.43,2.43,0,0,1,.16.37,2.88,2.88,0,0,1,.09.4,3.1,3.1,0,0,1,0,.43,2.72,2.72,0,0,1,0,.42,2.11,2.11,0,0,1-.11.38,1.74,1.74,0,0,1-.18.33,1.61,1.61,0,0,1-.24.28.86.86,0,0,1-.14.13l-.14.1-.16.08-.16.07-4,1.29.16-.06.16-.09a.83.83,0,0,0,.15-.11l.15-.13a2.26,2.26,0,0,0,.25-.29,2.31,2.31,0,0,0,.18-.35,2.22,2.22,0,0,0,.11-.39,3.13,3.13,0,0,0,0-.44,3.24,3.24,0,0,0,0-.45c0-.15-.06-.29-.1-.42a2.83,2.83,0,0,0-.17-.4,3.75,3.75,0,0,0-.24-.36A2.13,2.13,0,0,0,3.12,10a1.72,1.72,0,0,0-.32-.23,2,2,0,0,0-.36-.17,1.59,1.59,0,0,0-.39-.08"/></g></g></g><g class="cls-7"><g class="cls-7"><path class="cls-5" d="M1.72.7,5.83,0h.45L2.19.68H1.84Z"/><g class="cls-21"><g class="cls-7"><path class="cls-22" d="M1.72.7,5.83,0H6L1.94.68H1.72"/><path class="cls-23" d="M1.94.68,6,0h.24L2.19.68H1.94"/></g></g></g><g class="cls-7"><path class="cls-6" d="M6.74,4.21,2.69,5.1A2,2,0,0,0,2.92,5l.21-.1.2-.14.18-.16a2.6,2.6,0,0,0,.26-.32A2,2,0,0,0,4,4a2.34,2.34,0,0,0,.11-.4,2.15,2.15,0,0,0,0-.45,2.33,2.33,0,0,0,0-.46A3,3,0,0,0,4,2.22a2,2,0,0,0-.17-.4,2.82,2.82,0,0,0-.24-.36,2.16,2.16,0,0,0-.29-.31A2.19,2.19,0,0,0,3,.92,1.89,1.89,0,0,0,2.59.76a2.57,2.57,0,0,0-.4-.08L6.28,0a1.59,1.59,0,0,1,.38.07A2.17,2.17,0,0,1,7,.23a1.6,1.6,0,0,1,.31.22A1.94,1.94,0,0,1,7.6.74a1.92,1.92,0,0,1,.23.35A1.73,1.73,0,0,1,8,1.46a2,2,0,0,1,.1.41,3.17,3.17,0,0,1,0,.44,3,3,0,0,1,0,.43C8,2.88,8,3,8,3.13a2.21,2.21,0,0,1-.18.34,1.42,1.42,0,0,1-.25.3.93.93,0,0,1-.18.16,1.22,1.22,0,0,1-.19.12l-.2.1A.79.79,0,0,1,6.74,4.21Z"/><g class="cls-24"><path class="cls-25" d="M2.19.68,6.28,0a1.59,1.59,0,0,1,.38.07A2.17,2.17,0,0,1,7,.23a1.6,1.6,0,0,1,.31.22A1.94,1.94,0,0,1,7.6.74a1.92,1.92,0,0,1,.23.35A1.73,1.73,0,0,1,8,1.46a2,2,0,0,1,.1.41,3.17,3.17,0,0,1,0,.44,3,3,0,0,1,0,.43C8,2.88,8,3,8,3.13a2.21,2.21,0,0,1-.18.34,1.42,1.42,0,0,1-.25.3.93.93,0,0,1-.18.16,1.22,1.22,0,0,1-.19.12l-.2.1a.79.79,0,0,1-.22.06L2.69,5.1A2,2,0,0,0,2.92,5l.21-.1.2-.14.18-.16a2.6,2.6,0,0,0,.26-.32A2,2,0,0,0,4,4a2.34,2.34,0,0,0,.11-.4,2.15,2.15,0,0,0,0-.45,2.33,2.33,0,0,0,0-.46A3,3,0,0,0,4,2.22a2,2,0,0,0-.17-.4,2.82,2.82,0,0,0-.24-.36,2.16,2.16,0,0,0-.29-.31A2.19,2.19,0,0,0,3,.92,1.89,1.89,0,0,0,2.59.76a2.57,2.57,0,0,0-.4-.08"/></g></g></g><g class="cls-7"><polygon class="cls-26" points="7.71 18.99 11.51 17.44 40.24 21.43 37.69 23.34 7.71 18.99"/><polygon class="cls-27" points="37.69 23.34 40.24 21.43 39.94 25.86 37.39 28.01 37.69 23.34"/></g><g class="cls-7"><polygon class="cls-28" points="7.92 10.22 11.75 9.07 40.85 12.39 38.3 13.82 7.92 10.22"/><polygon class="cls-29" points="38.3 13.82 40.85 12.39 40.54 16.93 37.99 18.61 38.3 13.82"/></g><g class="cls-7"><polygon class="cls-30" points="8.13 1.23 11.99 0.52 41.47 3.13 38.92 4.06 8.13 1.23"/><polygon class="cls-31" points="38.92 4.06 41.47 3.13 41.15 7.79 38.6 8.97 38.92 4.06"/></g><path class="cls-32" d="M1.91,18.15a1.59,1.59,0,0,1,.39.1,2.21,2.21,0,0,1,.35.16,1.91,1.91,0,0,1,.32.24,2.13,2.13,0,0,1,.29.31,2.92,2.92,0,0,1,.24.37,2.54,2.54,0,0,1,.16.38,2.32,2.32,0,0,1,.12.86,2,2,0,0,1,0,.43,1.66,1.66,0,0,1-.11.38,1.74,1.74,0,0,1-.18.33,1.68,1.68,0,0,1-.24.29,1.54,1.54,0,0,1-.3.22,1.3,1.3,0,0,1-.32.14,2.08,2.08,0,0,1-.36.06,1.67,1.67,0,0,1-.38,0,2.46,2.46,0,0,1-.39-.09l-.35-.17a2.34,2.34,0,0,1-.31-.24,2.8,2.8,0,0,1-.28-.31,2.41,2.41,0,0,1-.23-.36,2.59,2.59,0,0,1-.17-.38A2.71,2.71,0,0,1,0,20.43,3.15,3.15,0,0,1,0,20a2.85,2.85,0,0,1,0-.42,1.52,1.52,0,0,1,.11-.38,1.29,1.29,0,0,1,.17-.33,1.68,1.68,0,0,1,.24-.29,1.54,1.54,0,0,1,.29-.23,1.3,1.3,0,0,1,.32-.14,1.44,1.44,0,0,1,.36-.07A2.48,2.48,0,0,1,1.91,18.15Z"/><path class="cls-33" d="M2.05,9.52a1.59,1.59,0,0,1,.39.08,2,2,0,0,1,.36.17,1.72,1.72,0,0,1,.32.23,2.13,2.13,0,0,1,.29.31,3.75,3.75,0,0,1,.24.36,2.83,2.83,0,0,1,.17.4c0,.13.07.27.1.42a3.24,3.24,0,0,1,0,.45,3.13,3.13,0,0,1,0,.44,2.22,2.22,0,0,1-.11.39,2.31,2.31,0,0,1-.18.35,2.26,2.26,0,0,1-.25.29,1.32,1.32,0,0,1-.3.24,1,1,0,0,1-.33.15,1.35,1.35,0,0,1-.36.07,1.72,1.72,0,0,1-.39,0,2.74,2.74,0,0,1-.39-.09,2.21,2.21,0,0,1-.35-.16,2.43,2.43,0,0,1-.32-.24,2.12,2.12,0,0,1-.28-.31A2.25,2.25,0,0,1,.4,12.7a2.54,2.54,0,0,1-.16-.38,3.2,3.2,0,0,1-.1-.42,3.15,3.15,0,0,1,0-.44c0-.16,0-.3,0-.44a2.22,2.22,0,0,1,.11-.39,2.31,2.31,0,0,1,.18-.35A1.76,1.76,0,0,1,.68,10,2.17,2.17,0,0,1,1,9.74l.33-.15a1.35,1.35,0,0,1,.36-.08A1.71,1.71,0,0,1,2.05,9.52Z"/><path class="cls-34" d="M2.19.68a2.57,2.57,0,0,1,.4.08A1.89,1.89,0,0,1,3,.92a2.19,2.19,0,0,1,.33.23,2.16,2.16,0,0,1,.29.31,2.82,2.82,0,0,1,.24.36,2,2,0,0,1,.17.4,3,3,0,0,1,.1.43,2.33,2.33,0,0,1,0,.46,2.15,2.15,0,0,1,0,.45A2.34,2.34,0,0,1,4,4a2,2,0,0,1-.18.36,2.6,2.6,0,0,1-.26.32,1.38,1.38,0,0,1-.3.24,1.29,1.29,0,0,1-.33.17,1.55,1.55,0,0,1-.36.08h-.4a1.59,1.59,0,0,1-.39-.08,1.46,1.46,0,0,1-.36-.16,1.72,1.72,0,0,1-.32-.23,2.16,2.16,0,0,1-.29-.31A2.25,2.25,0,0,1,.52,4,2.27,2.27,0,0,1,.36,3.6a2.13,2.13,0,0,1-.1-.42,3.4,3.4,0,0,1,0-.45,3.14,3.14,0,0,1,0-.45,2.45,2.45,0,0,1,.11-.41,3,3,0,0,1,.18-.36A2.34,2.34,0,0,1,.8,1.2,2.21,2.21,0,0,1,1.1,1,1.73,1.73,0,0,1,1.43.78,1.19,1.19,0,0,1,1.79.69,1.77,1.77,0,0,1,2.19.68Z"/><polygon class="cls-35" points="7.61 23.3 7.71 18.99 37.69 23.34 37.39 28.01 7.61 23.3"/><polygon class="cls-36" points="7.81 14.63 7.92 10.22 38.3 13.82 37.99 18.61 7.81 14.63"/><polygon class="cls-37" points="8.13 1.23 38.92 4.06 38.6 8.97 8.02 5.75 8.13 1.23"/></g></g></svg>