<svg xmlns="http://www.w3.org/2000/svg" xmlns:xlink="http://www.w3.org/1999/xlink" viewBox="0 0 42.07 44.65"><defs><style>.cls-1{isolation:isolate;}.cls-2{fill:url(#linear-gradient);}.cls-3{fill:url(#linear-gradient-2);}.cls-4{fill:url(#linear-gradient-3);}.cls-5{fill:url(#linear-gradient-4);}.cls-6{fill:url(#linear-gradient-5);}.cls-7{fill:url(#linear-gradient-6);}.cls-8{fill:url(#linear-gradient-7);}.cls-9{fill:url(#linear-gradient-8);}</style><linearGradient id="linear-gradient" x1="15.67" y1="54.32" x2="2.17" y2="3.15" gradientUnits="userSpaceOnUse"><stop offset="0" stop-color="#00e6c8"/><stop offset="0.11" stop-color="#03dabf"/><stop offset="0.32" stop-color="#0abba6"/><stop offset="0.59" stop-color="#16887f"/><stop offset="0.91" stop-color="#274248"/><stop offset="1" stop-color="#2c2d38"/></linearGradient><linearGradient id="linear-gradient-2" x1="18.62" y1="24.54" x2="9.52" y2="16.15" gradientUnits="userSpaceOnUse"><stop offset="0" stop-color="#00e6c8"/><stop offset="1" stop-color="#2c2d38"/></linearGradient><linearGradient id="linear-gradient-3" x1="39.77" y1="39.6" x2="-18.77" y2="32.24" gradientUnits="userSpaceOnUse"><stop offset="0" stop-color="#00e6c8"/><stop offset="0.4" stop-color="#13968a"/><stop offset="0.81" stop-color="#254b4f"/><stop offset="1" stop-color="#2c2d38"/></linearGradient><linearGradient id="linear-gradient-4" x1="30.8" y1="30.88" x2="21.39" y2="18.39" xlink:href="#linear-gradient-2"/><linearGradient id="linear-gradient-5" x1="42.69" y1="15.7" x2="21.3" y2="14.17" xlink:href="#linear-gradient-2"/><linearGradient id="linear-gradient-6" x1="4.34" y1="0.93" x2="46.71" y2="3.19" gradientUnits="userSpaceOnUse"><stop offset="0" stop-color="#00e6c8"/><stop offset="0.93" stop-color="#2c2d38"/></linearGradient><linearGradient id="linear-gradient-7" x1="57.27" y1="28.06" x2="25.54" y2="19.98" xlink:href="#linear-gradient-2"/><linearGradient id="linear-gradient-8" x1="36.53" y1="40.55" x2="-4.61" y2="-2.54" gradientUnits="userSpaceOnUse"><stop offset="0.29" stop-color="#00e6c8"/><stop offset="1" stop-color="#fff"/></linearGradient></defs><g id="Layer_2" data-name="Layer 2"><g id="Layer_1-2" data-name="Layer 1"><g class="cls-1"><polygon class="cls-2" points="4.05 6.2 8.84 4.4 9.46 34.56 4.78 37.06 4.05 6.2"/><polygon class="cls-3" points="9.94 19.05 14.57 16.94 20.43 23.63 15.92 25.91 9.94 19.05"/><polygon class="cls-4" points="4.78 37.06 9.46 34.56 37.86 37.5 33.73 40.16 4.78 37.06"/><polygon class="cls-5" points="30.67 17.63 34.92 15.5 20.51 29.69 16.02 32.12 30.67 17.63"/><polygon class="cls-6" points="27.64 14.19 31.95 12.14 34.92 15.5 30.67 17.63 27.64 14.19"/><path class="cls-7" d="M8.75,0H8.29L8,0H8L7.8.06l-.08,0H7.64l-.07,0L7.34.19,2.52,1.89l.3-.09.08,0,.27-.05h.05a1.87,1.87,0,0,1,.34,0H4L33.49,3.64l4.23-1.8Z"/><path class="cls-8" d="M42,6.67a4.53,4.53,0,0,0-.08-.91,4.13,4.13,0,0,0-.24-.85,4.22,4.22,0,0,0-.39-.8,5.54,5.54,0,0,0-.56-.74l-.1-.11-.11-.11L40.43,3h0l-.1-.09-.14-.13-.08-.05v0h0l0,0-.15-.11-.13-.08h0a.57.57,0,0,0-.13-.08l-.13-.08-.08,0h-.06l-.13-.07-.14,0-.06,0h0l-.05,0-.14,0L38.63,2h-.08l-.07,0-.15,0-.16,0h0l-.13,0h-.29l-4.23,1.8.44,0h0l.41.08h0l.38.13h0l.37.16h0l.36.21h0l.34.24,0,0,.33.28h0a3.51,3.51,0,0,1,.33.34,5,5,0,0,1,.57.76,4.19,4.19,0,0,1,.41.82,5.11,5.11,0,0,1,.25.87,5.64,5.64,0,0,1,.08.93l.13,32a5,5,0,0,1-.08.88,4.11,4.11,0,0,1-.23.8,4.24,4.24,0,0,1-.4.72,3.55,3.55,0,0,1-.55.62.57.57,0,0,1-.11.11l-.12.1-.13.1-.12.08h0l4.07-2.75.12-.09.12-.09.12-.1.12-.11a4.45,4.45,0,0,0,.54-.61,3.64,3.64,0,0,0,.38-.7A4.15,4.15,0,0,0,42,38.8a4.87,4.87,0,0,0,.07-.87Z"/></g><path class="cls-9" d="M30.67,17.63,16,32.12,7.15,21.9l2.79-2.85,6,6.86L27.64,14.18ZM35.91,4.57a4.41,4.41,0,0,0-.74-.47,4,4,0,0,0-.81-.31,4.17,4.17,0,0,0-.87-.15L4,1.71a3.62,3.62,0,0,0-.81,0,3,3,0,0,0-.74.2,3,3,0,0,0-.68.36,3.42,3.42,0,0,0-.61.54,4,4,0,0,0-.5.66,3.81,3.81,0,0,0-.36.73A4,4,0,0,0,.05,5a5,5,0,0,0,0,.88L.79,36.64a4.82,4.82,0,0,0,.1.86,4.55,4.55,0,0,0,.24.82,5,5,0,0,0,.38.77,5.12,5.12,0,0,0,.53.72,5.18,5.18,0,0,0,.62.62,4.87,4.87,0,0,0,.68.47,4.35,4.35,0,0,0,.74.32,4.2,4.2,0,0,0,.8.16l28.88,3.24a4.84,4.84,0,0,0,.85,0,3.38,3.38,0,0,0,.78-.16,3.65,3.65,0,0,0,.73-.33,3.05,3.05,0,0,0,.65-.5,3.55,3.55,0,0,0,.55-.62,4.24,4.24,0,0,0,.4-.72,4.11,4.11,0,0,0,.23-.8,5,5,0,0,0,.08-.88l-.13-32a5.64,5.64,0,0,0-.08-.93,5.11,5.11,0,0,0-.25-.87A4.19,4.19,0,0,0,37.16,6a5,5,0,0,0-.57-.76A5.2,5.2,0,0,0,35.91,4.57ZM33.73,40.16,4.78,37.06,4.05,6.2,33.52,8.29l.21,31.87"/></g></g></svg>