<svg xmlns="http://www.w3.org/2000/svg" viewBox="0 0 185.82 109.62"><defs><style>.cls-1,.cls-2{fill:none;stroke:#00e6c8;stroke-linecap:round;stroke-miterlimit:10;}.cls-1{stroke-width:2.12px;}.cls-2{stroke-width:8.46px;}</style></defs><g id="Layer_2" data-name="Layer 2"><g id="Layer_1-2" data-name="Layer 1"><path class="cls-1" d="M96.27,40.71a49.44,49.44,0,1,1-9.65-15.18"/><polyline class="cls-2" points="106.7 18.62 47.95 77.38 32.81 55.81"/><polyline class="cls-1" points="99.83 59.15 184.77 59.15 184.77 72.35 98.41 72.35"/><line class="cls-1" x1="177.62" y1="72.35" x2="177.62" y2="108.56"/><path class="cls-1" d="M152.54,59.15c-9.52,0-22.75-14.67-22.75-24.95H175.3C175.3,44.48,162.07,59.15,152.54,59.15Z"/><path class="cls-1" d="M129.79,38c-4.34,0-11.62,1-10.22,6.72,1.86,7.59,19.74,7.59,19.74,7.59"/><path class="cls-1" d="M141.33,9.76c2.48,5.56,5.78,12.31.48,17.62"/><path class="cls-1" d="M150.81,1.06c-4.64,4.64,10.37,17.49,1.55,26.32"/><path class="cls-1" d="M162.43,9.76c2.47,5.56,5.78,12.31.48,17.62"/><line class="cls-1" x1="139.95" y1="78.84" x2="96.34" y2="78.84"/><line class="cls-1" x1="118.15" y1="85.34" x2="92.32" y2="85.34"/><line class="cls-1" x1="132.64" y1="85.34" x2="124.07" y2="85.34"/><line class="cls-1" x1="110.1" y1="91.83" x2="87.47" y2="91.83"/></g></g></svg>