<svg xmlns="http://www.w3.org/2000/svg" xmlns:xlink="http://www.w3.org/1999/xlink" viewBox="0 0 38.24 48.48"><defs><style>.cls-1{fill:url(#linear-gradient);}.cls-2{fill:url(#linear-gradient-2);}.cls-3{fill:url(#linear-gradient-3);}.cls-4{fill:url(#linear-gradient-4);}.cls-5{fill:url(#linear-gradient-5);}.cls-6{fill:url(#linear-gradient-6);}.cls-7{fill:url(#linear-gradient-7);}.cls-8{fill:url(#linear-gradient-8);}.cls-9{fill:url(#linear-gradient-9);}.cls-10{fill:url(#linear-gradient-10);}.cls-11{fill:url(#linear-gradient-11);}</style><linearGradient id="linear-gradient" x1="0.57" y1="32.14" x2="10.01" y2="32.14" gradientUnits="userSpaceOnUse"><stop offset="0" stop-color="#00e6c8"/><stop offset="1" stop-color="#fff"/></linearGradient><linearGradient id="linear-gradient-2" x1="17.17" y1="43" x2="-0.43" y2="31.66" gradientUnits="userSpaceOnUse"><stop offset="0" stop-color="#00e6c8"/><stop offset="1" stop-color="#2c2d38"/></linearGradient><linearGradient id="linear-gradient-3" x1="1.9" y1="48.73" x2="30.16" y2="35.98" xlink:href="#linear-gradient"/><linearGradient id="linear-gradient-4" x1="29.4" y1="32.97" x2="38.13" y2="32.97" xlink:href="#linear-gradient"/><linearGradient id="linear-gradient-5" x1="41.96" y1="47.03" x2="29.69" y2="37.3" xlink:href="#linear-gradient-2"/><linearGradient id="linear-gradient-6" x1="35.38" y1="52.06" x2="-1.96" y2="24.85" gradientUnits="userSpaceOnUse"><stop offset="0.29" stop-color="#00e6c8"/><stop offset="1" stop-color="#fff"/></linearGradient><linearGradient id="linear-gradient-7" x1="22.45" y1="23.05" x2="-3.96" y2="15.45" xlink:href="#linear-gradient-2"/><linearGradient id="linear-gradient-8" x1="27.97" y1="14.47" x2="16.63" y2="11.4" xlink:href="#linear-gradient-2"/><linearGradient id="linear-gradient-9" x1="27.29" y1="33.14" x2="20.62" y2="23.14" xlink:href="#linear-gradient-2"/><linearGradient id="linear-gradient-10" x1="37.76" y1="16.89" x2="19.49" y2="20.62" xlink:href="#linear-gradient-2"/><linearGradient id="linear-gradient-11" x1="42.92" y1="29.31" x2="4.52" y2="11.61" xlink:href="#linear-gradient-6"/></defs><g id="Layer_2" data-name="Layer 2"><g id="Layer_1-2" data-name="Layer 1"><path class="cls-1" d="M6.39,32l3.62.1c-1.89.06-3.78.17-5.65.18-1.27,0-2.51-.07-3.79-.11Z"/><path class="cls-2" d="M10,32.1l-.31,8L4,40.83l.33-8.55Z"/><path class="cls-3" d="M9.7,40.1l23.78,1.33a31.71,31.71,0,0,1-4.42.88c-8,.58-17.1-1-25-1.48Z"/><path class="cls-4" d="M33.78,32.78l4.35.12c-1.4.09-2.77.24-4.13.26-1.53,0-3.05-.09-4.6-.14Z"/><path class="cls-5" d="M36.05,46.1a14.07,14.07,0,0,1-6.46,2.2,9.56,9.56,0,0,0,2.68-1.88C34.67,43,33.86,37,34,33.16l4.13-.26C38,36.46,39.18,43.25,36.05,46.1Z"/><path class="cls-6" d="M34,33.16c-.17,4.89,1.51,15.15-5.77,15.31-6.86.15-14-1.11-20.87-1.66-2.49-.19-4.69.11-6.17-2.15C-1,41.38.43,35.69.57,32.17l3.79.11L4,40.83l25,1.48L29.4,33Z"/><path class="cls-7" d="M15,17.51l4.73,7L14.6,24.2l-5-7.51Z"/><polygon class="cls-8" points="24.54 1.94 23.71 24.55 18.77 24.2 19.66 0 24.54 1.94 24.54 1.94"/><path class="cls-9" d="M32.06,21.29,21.33,35.19l-5.08.41L27.58,20.69Z"/><path class="cls-10" d="M29.28,17.21l2.78,4.08-4.48-.6-2.93-4.36Z"/><polygon class="cls-11" points="24.65 16.33 27.58 20.69 16.25 35.6 6.73 20.9 9.64 16.69 14.6 24.2 15.5 0.33 19.66 0 18.77 24.2 24.65 16.33 24.65 16.33"/></g></g></svg>