<svg xmlns="http://www.w3.org/2000/svg" xmlns:xlink="http://www.w3.org/1999/xlink" viewBox="0 0 42.1 49.53"><defs><style>.cls-1{fill:url(#linear-gradient);}.cls-2{fill:none;}.cls-3{isolation:isolate;}.cls-4{fill:url(#linear-gradient-2);}.cls-5{fill:url(#linear-gradient-3);}.cls-6{fill:url(#linear-gradient-4);}.cls-7{clip-path:url(#clip-path);}.cls-8{fill:url(#linear-gradient-7);}.cls-9{fill:url(#linear-gradient-8);}.cls-10{fill:url(#linear-gradient-9);}.cls-11{fill:url(#linear-gradient-10);}.cls-12{fill:#00927f;}.cls-13{clip-path:url(#clip-path-2);}.cls-14{fill:#009884;}.cls-15{fill:url(#linear-gradient-11);}.cls-16{fill:url(#linear-gradient-12);}.cls-17{fill:url(#linear-gradient-13);}.cls-18{fill:url(#linear-gradient-14);}.cls-19{fill:url(#linear-gradient-15);}</style><linearGradient id="linear-gradient" x1="2.9" y1="0.21" x2="7.55" y2="0.21" gradientUnits="userSpaceOnUse"><stop offset="0" stop-color="#00e6c8"/><stop offset="1" stop-color="#2c2d38"/></linearGradient><linearGradient id="linear-gradient-2" x1="17.66" y1="48.38" x2="3.42" y2="40.45" xlink:href="#linear-gradient"/><linearGradient id="linear-gradient-3" x1="12.24" y1="40.03" x2="1.88" y2="13.89" xlink:href="#linear-gradient"/><linearGradient id="linear-gradient-4" x1="15.6" y1="9.69" x2="4.19" y2="5.07" xlink:href="#linear-gradient"/><clipPath id="clip-path"><path class="cls-1" d="M2.9.42,7.17,0h.38L3.28.41H2.9Z"/></clipPath><linearGradient id="linear-gradient-7" x1="27.61" y1="46.41" x2="1.87" y2="41.31" xlink:href="#linear-gradient"/><linearGradient id="linear-gradient-8" x1="30.84" y1="39.16" x2="-2.02" y2="35.6" xlink:href="#linear-gradient"/><linearGradient id="linear-gradient-9" x1="28.35" y1="8.03" x2="7.51" y2="6.61" gradientUnits="userSpaceOnUse"><stop offset="0" stop-color="#00e6c8"/><stop offset="0.26" stop-color="#01e4c6"/><stop offset="0.41" stop-color="#03dbc0"/><stop offset="0.53" stop-color="#06cdb5"/><stop offset="0.64" stop-color="#0bb9a5"/><stop offset="0.74" stop-color="#119f91"/><stop offset="0.83" stop-color="#197f78"/><stop offset="0.92" stop-color="#215a5b"/><stop offset="1" stop-color="#2c2f39"/><stop offset="1" stop-color="#2c2d38"/></linearGradient><linearGradient id="linear-gradient-10" x1="39.53" y1="27.9" x2="10.72" y2="22.72" gradientUnits="userSpaceOnUse"><stop offset="0" stop-color="#00e6c8"/><stop offset="0.8" stop-color="#2c2d38"/><stop offset="1" stop-color="#197d76"/></linearGradient><clipPath id="clip-path-2"><path class="cls-2" d="M38.9,36.49l-4.09.81h-.07l4.09-.82h.07Z"/></clipPath><linearGradient id="linear-gradient-11" x1="33.29" y1="18.92" x2="34.66" y2="24.61" gradientUnits="userSpaceOnUse"><stop offset="0" stop-color="#00e6c8"/><stop offset="0.57" stop-color="#2c2d38"/><stop offset="1" stop-color="#197d76"/></linearGradient><linearGradient id="linear-gradient-12" x1="47.05" y1="27.33" x2="34.53" y2="27.12" xlink:href="#linear-gradient"/><linearGradient id="linear-gradient-13" x1="20.62" y1="29.92" x2="-10.89" y2="8.45" gradientUnits="userSpaceOnUse"><stop offset="0.29" stop-color="#00e6c8"/><stop offset="1" stop-color="#fff"/></linearGradient><linearGradient id="linear-gradient-14" x1="19.67" y1="13.23" x2="51.39" y2="38.07" xlink:href="#linear-gradient-13"/><linearGradient id="linear-gradient-15" x1="39.42" y1="34.39" x2="13.76" y2="12.53" xlink:href="#linear-gradient-13"/></defs><g id="Layer_2" data-name="Layer 2"><g id="Layer_1-2" data-name="Layer 1"><g class="cls-3"><polygon class="cls-4" points="4.02 41.31 8.24 40.49 8.28 42.61 4.06 43.45 4.02 41.31"/><polygon class="cls-5" points="3.48 11.24 7.73 10.72 8.17 36.27 3.95 37.04 3.48 11.24"/><polygon class="cls-6" points="3.36 4.75 7.62 4.3 7.66 6.44 3.4 6.92 3.36 4.75"/><path class="cls-1" d="M2.9.42,7.17,0h.38L3.28.41H2.9Z"/><g class="cls-7"><g class="cls-3"><path class="cls-1" d="M2.9.42,7.17,0h.38L3.28.41H2.9"/></g></g><polygon class="cls-8" points="4.06 43.45 8.28 42.61 25.38 44.27 21.24 45.14 4.06 43.45"/><polygon class="cls-9" points="3.95 37.04 8.17 36.27 25.3 37.77 21.14 38.58 3.95 37.04"/><polygon class="cls-10" points="3.4 6.92 7.66 6.44 24.88 7.21 20.69 7.7 3.4 6.92"/><path class="cls-11" d="M28.4,5.15c0-.13,0-.26,0-.39s0-.26,0-.38a.24.24,0,0,0,0-.08v0s0,0,0,0a1.7,1.7,0,0,0,0-.22q0-.19-.09-.36c0-.06,0-.11-.05-.16v0h0a.36.36,0,0,0,0-.11L28,3.17S28,3.07,27.94,3l-.06-.13s-.05-.08-.07-.13l0-.06h0l0-.06-.07-.12-.08-.13-.09-.12-.09-.12L27.32,2h0l-.1-.12-.1-.11L27,1.68h0v0l-.11-.1-.1-.1,0,0h0l0,0-.11-.09-.11-.08,0,0h0l-.1-.07L26.2,1l0,0h0l-.08,0L25.91.86l-.05,0-.1,0L25.64.75l-.09,0-.06,0h0l-.08,0-.14,0-.1,0h0l-.29,0L7.55,0,3.28.41,20.6,1c.11,0,.22,0,.33,0l.1,0,.22,0,.11,0,.21.07.1,0,.27.13h0l.29.18,0,0,.28.22,0,0,.27.26h0l.27.31a6.12,6.12,0,0,1,.47.7h0a5.7,5.7,0,0,1,.34.76h0a5.38,5.38,0,0,1,.2.79s0,0,0,.07a6,6,0,0,1,.08.86l.55,39.86a6,6,0,0,1-.06.87,4.8,4.8,0,0,1-.18.79,4,4,0,0,1-.77,1.34,3.85,3.85,0,0,1-.35.35,2.47,2.47,0,0,1-.38.28,3,3,0,0,1-.4.21,1.87,1.87,0,0,1-.42.13l4.14-.92a2.58,2.58,0,0,0,.42-.13,3,3,0,0,0,.4-.21,2.4,2.4,0,0,0,.37-.28,3,3,0,0,0,.36-.35,3.32,3.32,0,0,0,.44-.62,3.68,3.68,0,0,0,.32-.7,4.92,4.92,0,0,0,.18-.78,6,6,0,0,0,.06-.86Z"/></g><g class="cls-3"><polygon class="cls-12" points="26.63 36.61 30.76 35.81 38.84 36.49 34.74 37.31 26.63 36.61"/><g class="cls-3"><g class="cls-13"><g class="cls-3"><path class="cls-14" d="M34.74,37.31l4.09-.82h.07l-4.09.81h-.07"/></g></g></g><path class="cls-15" d="M37.08,21.38l0-.21a.09.09,0,0,0,0-.05v0A.43.43,0,0,1,37,21L37,20.78l0-.1v0h0l0-.05a.42.42,0,0,0,0-.1.36.36,0,0,0,0-.09l0-.07a.43.43,0,0,0,0-.07v0h0l0-.05a.43.43,0,0,1,0-.07l0-.06,0-.06-.05-.07,0-.06h0l0-.05-.05-.06,0-.06a.12.12,0,0,1-.05-.05l-.06-.06,0,0h0l0,0-.06-.05-.07-.05L36,19.38l-.08-.06h0l-.06,0-.09-.05-.14-.06h-.09l-.06,0a.41.41,0,0,0-.16,0l-.15,0h-.34l-4.13.63H31a1.27,1.27,0,0,1,.38.07h0a2.21,2.21,0,0,1,.35.16h0a3.43,3.43,0,0,1,.33.24h0a1.72,1.72,0,0,1,.29.31h0a3.41,3.41,0,0,1,.25.37h0a2.65,2.65,0,0,1,.18.42h0c0,.14.08.28.11.43v0a3.57,3.57,0,0,1,0,.47,3.09,3.09,0,0,1-.11.83,2.45,2.45,0,0,1-.33.69,1.79,1.79,0,0,1-.5.49,1.44,1.44,0,0,1-.63.25l4.12-.67a1.74,1.74,0,0,0,.63-.25,1.94,1.94,0,0,0,.5-.49,2.24,2.24,0,0,0,.32-.68,2.71,2.71,0,0,0,.12-.82C37.09,21.52,37.08,21.45,37.08,21.38Z"/><path class="cls-16" d="M41.92,17.93c0-.12,0-.24,0-.35v0s0-.08,0-.12a1.23,1.23,0,0,0,0-.19s0,0,0-.06l0-.14c0-.05,0-.09,0-.13l0-.1,0-.14,0-.09a1,1,0,0,0-.05-.16v-.06h0l0-.09-.06-.16a1,1,0,0,1-.07-.15l-.06-.12-.06-.13,0,0h0a.43.43,0,0,1,0-.07l-.07-.11-.07-.11-.07-.11-.08-.1-.07-.1h0L40.85,15l-.09-.09a.27.27,0,0,0-.07-.08h0l-.09-.08-.1-.1-.05,0,0,0,0,0-.1-.08-.11-.08h0l-.1-.07-.14-.09h0l-.09,0L39.61,14h0l-.08,0-.14-.06-.07,0-.1,0-.09,0-.12,0-.09,0h0a1.09,1.09,0,0,0-.26,0l-8.11-.43-4.15.57,8.14.43.31,0,.09,0,.21,0,.1,0,.22.08.07,0,.27.13,0,0,.27.17h0l.26.21h0l.25.24h0l.23.27h0a4.44,4.44,0,0,1,.41.62h0a5.37,5.37,0,0,1,.31.69v0l.09.3,0,.14.06.23a.68.68,0,0,0,0,.14,2.34,2.34,0,0,1,0,.26s0,.08,0,.12,0,.26,0,.39L38,37.2a4.41,4.41,0,0,1-.17,1.33,3.83,3.83,0,0,1-.51,1.1,3.16,3.16,0,0,1-.79.8,2.54,2.54,0,0,1-1,.43L39.65,40a2.58,2.58,0,0,0,1-.43,3.44,3.44,0,0,0,.78-.79,3.9,3.9,0,0,0,.51-1.09,4.32,4.32,0,0,0,.17-1.31Z"/></g><path class="cls-17" d="M20.6,1A3.06,3.06,0,0,1,22,1.41a3.4,3.4,0,0,1,.61.43,5.3,5.3,0,0,1,.56.59,5.45,5.45,0,0,1,.47.71,4.86,4.86,0,0,1,.34.77,5.3,5.3,0,0,1,.21.83,6.26,6.26,0,0,1,.08.89l.55,39.86a6,6,0,0,1-.06.87,4.8,4.8,0,0,1-.18.79,4,4,0,0,1-.77,1.34,3.6,3.6,0,0,1-.54.5A2.56,2.56,0,0,1,22,49.5a2.73,2.73,0,0,1-.7,0L4.14,47.71a3.82,3.82,0,0,1-.67-.15,3.93,3.93,0,0,1-.62-.3,4.48,4.48,0,0,1-.57-.45,4.49,4.49,0,0,1-.52-.6,5.13,5.13,0,0,1-.44-.7A5,5,0,0,1,1,44.76,4.92,4.92,0,0,1,.81,44a4.6,4.6,0,0,1-.08-.84L0,4.61a6,6,0,0,1,.05-.86A4,4,0,0,1,.22,3a3.74,3.74,0,0,1,.29-.72A4,4,0,0,1,.93,1.6a3.76,3.76,0,0,1,.5-.54A3.26,3.26,0,0,1,2,.68,2.39,2.39,0,0,1,2.61.47,2.46,2.46,0,0,1,3.28.41Zm.54,37.55-.38-26.44-17.28-.9L4,37l17.19,1.54m.1,6.56,0-2.18L4,41.31l0,2.14,17.18,1.69M20.69,7.7l0-2.22L3.36,4.75l0,2.17,17.29.78"/><path class="cls-18" d="M33,22.24a3,3,0,0,1-.14.93,2.52,2.52,0,0,1-.41.74,1.73,1.73,0,0,1-.62.47,1.52,1.52,0,0,1-.76.14,1.78,1.78,0,0,1-.77-.24,2.34,2.34,0,0,1-.62-.56,2.62,2.62,0,0,1-.43-.79,3.2,3.2,0,0,1-.17-.94,2.79,2.79,0,0,1,.15-.93,2.29,2.29,0,0,1,.4-.74,1.86,1.86,0,0,1,.62-.47,1.5,1.5,0,0,1,.76-.14,1.69,1.69,0,0,1,.76.23,2.23,2.23,0,0,1,.63.56,2.91,2.91,0,0,1,.6,1.74Z"/><path class="cls-19" d="M34.47,14.32a2.94,2.94,0,0,1,1.29.39,3.71,3.71,0,0,1,1.06.92A4.74,4.74,0,0,1,37.54,17a4.62,4.62,0,0,1,.28,1.59L38,37.2a4.74,4.74,0,0,1-.25,1.54A3.78,3.78,0,0,1,37.09,40a2.89,2.89,0,0,1-1,.76,2.58,2.58,0,0,1-1.27.19l-8.1-.73-.05-3.56,8.11.7.12,0a.39.39,0,0,0,.1-.08.35.35,0,0,0,.07-.12.59.59,0,0,0,0-.14l-.21-18.58a.4.4,0,0,0,0-.15.54.54,0,0,0-.07-.13.28.28,0,0,0-.1-.09l-.12,0-8.14-.48-.05-3.59Z"/></g></g></svg>