<svg xmlns="http://www.w3.org/2000/svg" viewBox="0 0 78.43 75.42"><defs><style>.cls-1,.cls-4{fill:none;}.cls-1,.cls-3,.cls-4{stroke:#2c2d38;stroke-miterlimit:10;stroke-width:5.01px;}.cls-2{fill:#2c2d38;}.cls-3{fill:#00e6c8;}.cls-4{stroke-linecap:round;}</style></defs><g id="Layer_2" data-name="Layer 2"><g id="Layer_1-2" data-name="Layer 1"><rect class="cls-1" x="2.5" y="2.5" width="62.56" height="62.56" rx="6.39"/><path class="cls-2" d="M39.71,47.17,35,51.89a1.71,1.71,0,0,1-2.41,0l-4.72-4.72a1.72,1.72,0,0,1,.27-2.64,10.31,10.31,0,0,1,11.31,0A1.71,1.71,0,0,1,39.71,47.17Z"/><path class="cls-2" d="M43.18,30.85A24.13,24.13,0,0,0,19.54,33.6a3.23,3.23,0,0,0-.35,4.89h0a3.23,3.23,0,0,0,4.19.34,17.67,17.67,0,0,1,20.81,0,3.23,3.23,0,0,0,4.19-.34h0A3.23,3.23,0,0,0,48,33.6,23.88,23.88,0,0,0,43.18,30.85Z"/><path class="cls-2" d="M48.54,18.17A37.85,37.85,0,0,0,9.6,23.91a3.24,3.24,0,0,0-.22,4.78h0a3.26,3.26,0,0,0,4.38.19,31.38,31.38,0,0,1,40.05,0,3.26,3.26,0,0,0,4.38-.19h0A3.24,3.24,0,0,0,58,23.91,37.62,37.62,0,0,0,48.54,18.17Z"/><circle class="cls-3" cx="62.26" cy="59.25" r="13.66"/><line class="cls-4" x1="57.04" y1="59.25" x2="62.26" y2="59.25"/><line class="cls-4" x1="66.13" y1="51.79" x2="62.26" y2="59.25"/></g></g></svg>