<svg xmlns="http://www.w3.org/2000/svg" xmlns:xlink="http://www.w3.org/1999/xlink" viewBox="0 0 40.51 48.42"><defs><style>.cls-1{isolation:isolate;}.cls-2{fill:url(#linear-gradient);}.cls-3{fill:url(#linear-gradient-2);}.cls-4{fill:url(#linear-gradient-3);}.cls-5{fill:url(#linear-gradient-4);}.cls-6{fill:url(#linear-gradient-5);}.cls-7{fill:url(#linear-gradient-6);}.cls-8{fill:url(#linear-gradient-7);}.cls-9{fill:url(#linear-gradient-8);}</style><linearGradient id="linear-gradient" x1="47.19" y1="-10.97" x2="36.99" y2="-13.64" gradientTransform="translate(-35.39 40.83) rotate(-0.39)" gradientUnits="userSpaceOnUse"><stop offset="0" stop-color="#00e6c8"/><stop offset="1" stop-color="#2c2d38"/></linearGradient><linearGradient id="linear-gradient-2" x1="52.53" y1="3.93" x2="35.54" y2="-10.23" gradientTransform="translate(-35.39 40.83) rotate(-0.39)" gradientUnits="userSpaceOnUse"><stop offset="0" stop-color="#00e6c8"/><stop offset="0.7" stop-color="#2c2d38"/></linearGradient><linearGradient id="linear-gradient-3" x1="37.21" y1="-23.5" x2="57.12" y2="-23.5" xlink:href="#linear-gradient"/><linearGradient id="linear-gradient-4" x1="65.11" y1="-2.11" x2="50.71" y2="-10.53" xlink:href="#linear-gradient"/><linearGradient id="linear-gradient-5" x1="58" y1="-39.88" x2="58.57" y2="-27.66" gradientTransform="translate(-35.39 40.83) rotate(-0.39)" gradientUnits="userSpaceOnUse"><stop offset="0" stop-color="#00e6c8"/><stop offset="0.57" stop-color="#2c2d38"/><stop offset="1" stop-color="#197d76"/></linearGradient><linearGradient id="linear-gradient-6" x1="55.2" y1="-19.02" x2="72.17" y2="-19.02" xlink:href="#linear-gradient"/><linearGradient id="linear-gradient-7" x1="81.16" y1="-9.33" x2="69.1" y2="-13.05" xlink:href="#linear-gradient"/><linearGradient id="linear-gradient-8" x1="74.73" y1="3.47" x2="27.95" y2="-35.22" gradientTransform="translate(-35.39 40.83) rotate(-0.39)" gradientUnits="userSpaceOnUse"><stop offset="0.29" stop-color="#00e6c8"/><stop offset="1" stop-color="#fff"/></linearGradient></defs><g id="Layer_2" data-name="Layer 2"><g id="Layer_1-2" data-name="Layer 1"><g class="cls-1"><polygon class="cls-2" points="3.42 18.6 7.55 18.33 7.67 36.66 3.56 37.6 3.42 18.6"/><polygon class="cls-3" points="3.56 37.6 7.67 36.66 19.87 42.23 16.1 43.41 3.56 37.6"/><path class="cls-4" d="M6.41,13.82H5.83l-4.19.1h.18l.14,0H2l.14,0h0l.14,0L17.85,20.3,21.59,20Z"/><polygon class="cls-5" points="19.7 23.98 23.39 23.5 23.42 42.48 19.75 43.68 19.7 23.98"/><path class="cls-6" d="M27.69,6.5a1.1,1.1,0,0,0,0-.18c0-.14,0-.27-.05-.4l0-.2-.09-.39a1.16,1.16,0,0,0,0-.18s0-.05,0-.07l0-.1c0-.12-.07-.24-.11-.36s-.1-.25-.16-.38,0-.07,0-.11a7.37,7.37,0,0,0-.39-.74.3.3,0,0,0,0-.08l-.06-.07a5.24,5.24,0,0,0-.47-.66v0l0,0A7.27,7.27,0,0,0,25.56,2a.46.46,0,0,0-.07-.07l0,0c-.2-.17-.41-.33-.62-.48l-.13-.08-.27-.16L24.05.94,24,.9l0,0h0l-.07,0L23.68.78,23.53.72l-.11,0h-.05l-.13,0-.12,0L23,.56l-.12,0h0l-.12,0-.11,0-.11,0-.12,0h-.09L18.56,0a5.67,5.67,0,0,1,.57.1h0l.54.14h0a4.5,4.5,0,0,1,.51.2h0q.24.11.48.24l.09.06.36.22.15.11.28.22.15.12.16.15c.19.19.38.38.56.59l0,0c.18.22.34.46.5.7l.09.16a7,7,0,0,1,.4.77l.05.12a6.39,6.39,0,0,1,.28.77,1.09,1.09,0,0,0,.05.17,1.29,1.29,0,0,1,0,.19,2.59,2.59,0,0,1,.09.4c0,.07,0,.14,0,.21s0,.27.05.41a1.37,1.37,0,0,1,0,.19c0,.21,0,.41,0,.62a7.63,7.63,0,0,1-.49,2.72,7.23,7.23,0,0,1-1.32,2.23,6.21,6.21,0,0,1-1.95,1.51A5.51,5.51,0,0,1,18,14l3.75-.11a5.51,5.51,0,0,0,2.31-.57A6.2,6.2,0,0,0,26,11.86a7.16,7.16,0,0,0,1.29-2.15,7.52,7.52,0,0,0,.47-2.62A5.83,5.83,0,0,0,27.69,6.5Z"/><polygon class="cls-7" points="33.34 19.06 36.63 18.76 23.39 23.5 19.7 23.98 33.34 19.06"/><path class="cls-8" d="M40.45,15.41a2.12,2.12,0,0,0-.42-.87,2.13,2.13,0,0,0-.34-.33l-.08-.06-.09-.06L39.43,14h0l-.09,0-.05,0,0,0-.05,0h0l0,0h-.6l-3.24.11h.07a1.55,1.55,0,0,1,.31,0h0a1.63,1.63,0,0,1,.3.07h0l.28.13h0a1.78,1.78,0,0,1,.27.17,3,3,0,0,1,.36.35,2.26,2.26,0,0,1,.26.42,2.3,2.3,0,0,1,.17.48,2.22,2.22,0,0,1,.06.51l-.08,25.13a2.37,2.37,0,0,1-.08.61,1.91,1.91,0,0,1-.25.54,2.6,2.6,0,0,1-.38.43,1.89,1.89,0,0,1-.5.28l3.19-1.22a1.9,1.9,0,0,0,.48-.27,1.86,1.86,0,0,0,.37-.42,2,2,0,0,0,.24-.51,2.27,2.27,0,0,0,.08-.59l.1-24.17A2,2,0,0,0,40.45,15.41Z"/></g><path class="cls-9" d="M17.83,14a5.65,5.65,0,0,1-2.42-.55A6.34,6.34,0,0,1,13.46,12a7.21,7.21,0,0,1-1.31-2.19,7.59,7.59,0,0,1-.49-2.68,7.77,7.77,0,0,1,.46-2.7,7.38,7.38,0,0,1,1.3-2.23A6.57,6.57,0,0,1,15.36.62,5.86,5.86,0,0,1,17.78,0a5.6,5.6,0,0,1,2.45.49,5.91,5.91,0,0,1,2,1.46,7.15,7.15,0,0,1,1.38,2.23,7.79,7.79,0,0,1,0,5.52A7.27,7.27,0,0,1,22.27,12a6.27,6.27,0,0,1-2,1.5A5.44,5.44,0,0,1,17.83,14Zm18.39.16L35.94,14a1.63,1.63,0,0,0-.3-.07,1.55,1.55,0,0,0-.31,0h-.16L35,14l-.16,0-.16.05L17.85,20.3,2.24,13.92l-.14-.05-.14,0-.14,0H1.68l-.26,0-.25.07A1.15,1.15,0,0,0,.92,14a1.43,1.43,0,0,0-.22.15,2.27,2.27,0,0,0-.3.32,2.08,2.08,0,0,0-.22.38,3.22,3.22,0,0,0-.14.44,2.42,2.42,0,0,0,0,.47l.2,23a2.35,2.35,0,0,0,.08.6,2.4,2.4,0,0,0,.24.54,2,2,0,0,0,.36.45,1.65,1.65,0,0,0,.46.32l16,7.57.05,0,.05,0,.08,0,.1,0,.08,0h.47l.13,0h.22l17.38-5.22a2,2,0,0,0,.55-.27,2,2,0,0,0,.42-.44,2,2,0,0,0,.28-.55,2.27,2.27,0,0,0,.09-.65l.08-25.13a2.22,2.22,0,0,0-.06-.51,2.3,2.3,0,0,0-.17-.48,2.26,2.26,0,0,0-.26-.42,3,3,0,0,0-.36-.35A1.78,1.78,0,0,0,36.22,14.16ZM16.1,43.41,3.56,37.6l-.14-19L16,23.88l.07,19.53m17.21-3.94L19.75,43.68,19.7,24l13.64-4.92,0,20.41"/></g></g></svg>