<svg xmlns="http://www.w3.org/2000/svg" viewBox="0 0 140.8 126.96"><defs><style>.cls-1,.cls-3{fill:none;stroke:#00e6c8;stroke-miterlimit:10;}.cls-1{stroke-width:1.94px;}.cls-2{fill:#00e6c8;}.cls-3{stroke-linecap:round;stroke-width:2.12px;}</style></defs><g id="Layer_2" data-name="Layer 2"><g id="Layer_1-2" data-name="Layer 1"><g id="Layer_1-3" data-name="Layer_1"><g id="_1421344023328" data-name=" 1421344023328"><path class="cls-1" d="M41.85,110.26A20.75,20.75,0,1,1,26.74,85.11a20.75,20.75,0,0,1,15.11,25.15Z"/><path class="cls-2" d="M30.87,102.28c.41-2.76-1.69-4.25-4.56-5.24l.93-3.74L25,92.74l-.91,3.64L22.23,96l.91-3.67-2.27-.57-.94,3.74-1.45-.34h0l-3.14-.78-.6,2.43s1.69.39,1.65.41a1.21,1.21,0,0,1,1.06,1.32l-1.06,4.27.24.07-.24-.06-1.49,6a.84.84,0,0,1-1.05.54s-1.65-.41-1.65-.41l-1.13,2.61,3,.74,1.62.41-.94,3.79L17,117l.93-3.75c.62.17,1.22.33,1.81.47l-.93,3.73,2.28.57.94-3.78c3.89.73,6.81.44,8-3.07,1-2.83,0-4.46-2.1-5.53a3.63,3.63,0,0,0,2.91-3.34Zm-5.2,7.3c-.71,2.82-5.47,1.3-7,.91l1.25-5c1.54.38,6.49,1.15,5.76,4.1Zm.7-7.34c-.64,2.57-4.6,1.26-5.89.94l1.14-4.54c1.28.32,5.42.92,4.75,3.6Z"/></g></g><circle class="cls-1" cx="119.08" cy="105.24" r="20.75"/><polygon class="cls-2" points="110.14 94.61 119.39 104.69 128.59 94.61 134.04 94.61 134.04 114.86 128.96 114.86 128.96 100.5 124.56 104.75 124.56 108.49 119.33 104.78 114.18 108.45 114.18 104.75 109.74 100.46 109.74 114.86 104.65 114.86 104.65 94.61 110.14 94.61"/><path class="cls-2" d="M119.77,107.17v.94a2.18,2.18,0,0,1,1.88,1.43c-.14,0-.82.51-.89.45a1.28,1.28,0,0,0-1-.9v2.39c.94.29,1.93.75,2,1.86a2.09,2.09,0,0,1-2,2.37v.94h-.72v-.94a2.53,2.53,0,0,1-2.35-1.62l.87-.47a1.68,1.68,0,0,0,1.48,1.07v-2.48c-1-.34-1.89-.75-2-1.9a2,2,0,0,1,2-2.25v-.89Zm-.72,1.92c-1.35.23-1.24,1.73,0,2.09Zm.72,5.6a1.09,1.09,0,0,0,0-2.18Z"/><circle class="cls-1" cx="70.4" cy="105.24" r="20.75"/><g id="Layer_2-2" data-name="Layer 2"><g id="Layer_1-2-2" data-name="Layer 1-2"><path class="cls-2" d="M63.12,105.13a2.18,2.18,0,0,0,2.05,2.29h.12a2.17,2.17,0,1,0-2.17-2.29Z"/><path class="cls-2" d="M55,104.57a.7.7,0,1,0,.66.74.7.7,0,0,0-.66-.74Z"/><path class="cls-2" d="M63,92.54a.7.7,0,0,0-.64-1.25.71.71,0,0,0-.31.94.7.7,0,0,0,1,.31Z"/><path class="cls-2" d="M65.19,96.38a1.09,1.09,0,1,0-1.46-.48A1.09,1.09,0,0,0,65.19,96.38Z"/><path class="cls-2" d="M57.78,99a.9.9,0,0,0,1-1.5.89.89,0,0,0-1.23.26h0A.9.9,0,0,0,57.78,99Z"/><path class="cls-2" d="M59.1,104.18a1.09,1.09,0,1,0,1,1.15h0A1.09,1.09,0,0,0,59.1,104.18Z"/><path class="cls-2" d="M57.91,111.46a.9.9,0,0,0-.4,1.2.88.88,0,0,0,1.2.39.87.87,0,0,0,.39-1.19h0a.89.89,0,0,0-1.19-.4Z"/><path class="cls-2" d="M62.11,101.94a1.27,1.27,0,1,0-.36-1.76,1.26,1.26,0,0,0,.36,1.76Z"/><path class="cls-2" d="M75.47,96.29a1.08,1.08,0,1,0-.32-1.5h0a1.09,1.09,0,0,0,.31,1.5Z"/><path class="cls-2" d="M77.69,92.47a.71.71,0,0,0,1-.2.72.72,0,0,0-.2-1,.7.7,0,0,0-1,.21h0a.69.69,0,0,0,.2,1Z"/><path class="cls-2" d="M75.64,103.06a2.17,2.17,0,0,0-.25,4.33h.12a2.17,2.17,0,0,0,.13-4.33Z"/><path class="cls-2" d="M65.9,101.79a2.17,2.17,0,1,0-.23-1A2.16,2.16,0,0,0,65.9,101.79Z"/><path class="cls-2" d="M82.9,99a.89.89,0,1,0-1.21-.39A.89.89,0,0,0,82.9,99Z"/><path class="cls-2" d="M77.4,99.7a1.28,1.28,0,1,0,1.71.57A1.28,1.28,0,0,0,77.4,99.7Z"/><path class="cls-2" d="M70.32,92.14a.89.89,0,1,0-.84-.94.89.89,0,0,0,.84.94Z"/><path class="cls-2" d="M70.31,97.75a1.27,1.27,0,1,0-1.2-1.34,1.27,1.27,0,0,0,1.2,1.34Z"/><path class="cls-2" d="M63.4,110.77a1.28,1.28,0,1,0-1.71-.56h0A1.28,1.28,0,0,0,63.4,110.77Z"/><path class="cls-2" d="M71.13,99.62a2.17,2.17,0,1,0,1.82-1A2.16,2.16,0,0,0,71.13,99.62Z"/><path class="cls-2" d="M74.9,108.68a2.17,2.17,0,1,0-1,2.92h0a2.15,2.15,0,0,0,1-2.89Z"/><path class="cls-2" d="M78.69,108.53a1.27,1.27,0,1,0-1.4,2.13,1.26,1.26,0,0,0,1.76-.36h0A1.29,1.29,0,0,0,78.69,108.53Z"/><path class="cls-2" d="M82.84,105.27a1.08,1.08,0,1,0-1.14,1h0A1.07,1.07,0,0,0,82.84,105.27Z"/><path class="cls-2" d="M85.84,104.5a.72.72,0,0,0-.74.66.7.7,0,1,0,.74-.66Z"/><path class="cls-2" d="M83,111.46a.89.89,0,1,0,.26,1.23A.89.89,0,0,0,83,111.46Z"/><path class="cls-2" d="M63.11,118a.69.69,0,0,0-1,.2.71.71,0,0,0,.2,1,.72.72,0,0,0,1-.2h0A.7.7,0,0,0,63.11,118Z"/><path class="cls-2" d="M77.82,117.93a.7.7,0,1,0,.94.31.7.7,0,0,0-.94-.31Z"/><path class="cls-2" d="M69.67,110.86a2.17,2.17,0,1,0-3,.62,2.08,2.08,0,0,0,1.19.36A2.17,2.17,0,0,0,69.67,110.86Z"/><path class="cls-2" d="M65.34,114.18a1.08,1.08,0,1,0,.31,1.5h0A1.08,1.08,0,0,0,65.34,114.18Z"/><path class="cls-2" d="M70.39,118.33a.9.9,0,0,0-.94.84.89.89,0,0,0,1.78.11.9.9,0,0,0-.84-1Z"/><path class="cls-2" d="M70.4,112.72a1.27,1.27,0,1,0,1.2,1.34,1.27,1.27,0,0,0-1.2-1.34Z"/><path class="cls-2" d="M75.62,114.1a1.08,1.08,0,1,0,1,1.93,1.09,1.09,0,0,0-1-1.94Z"/></g></g><path class="cls-3" d="M25.23,46.13,20.17,20.4a5.7,5.7,0,0,1,4.49-6.69L88.45,1.17a5.69,5.69,0,0,1,6.69,4.49l1.69,8.57"/><rect class="cls-3" x="30.22" y="19.23" width="76.41" height="49.01" rx="5.7"/><rect class="cls-2" x="81.06" y="49.47" width="16.8" height="11.39" rx="1.49"/><rect class="cls-2" x="30.22" y="29.48" width="76.41" height="9.05"/><line class="cls-3" x1="5.88" y1="68.06" x2="134.93" y2="19.01"/></g></g></svg>