<svg xmlns="http://www.w3.org/2000/svg" viewBox="0 0 88.13 81.76"><defs><style>.cls-1{fill:none;stroke:#2c2d38;stroke-linecap:round;stroke-linejoin:round;stroke-width:3.74px;}.cls-2{fill:#2c2d38;}</style></defs><g id="Layer_2" data-name="Layer 2"><g id="Layer_1-2" data-name="Layer 1"><circle class="cls-1" cx="44.07" cy="60.47" r="19.42"/><polygon class="cls-2" points="35.7 50.53 44.35 59.96 52.97 50.53 58.06 50.53 58.06 69.48 53.31 69.48 53.31 56.04 49.19 60.02 49.19 63.52 44.29 60.04 39.48 63.48 39.48 60.02 35.32 56 35.32 69.48 30.56 69.48 30.56 50.53 35.7 50.53"/><path class="cls-2" d="M44.71,62.28v.88a2.06,2.06,0,0,1,1.76,1.34c-.13,0-.77.48-.84.42a1.2,1.2,0,0,0-.92-.84v2.24c.88.27,1.8.7,1.88,1.74a2,2,0,0,1-1.88,2.22v.88H44v-.88a2.38,2.38,0,0,1-2.19-1.52l.81-.44a1.57,1.57,0,0,0,1.38,1V67c-.9-.31-1.77-.7-1.84-1.78A1.9,1.9,0,0,1,44,63.12v-.84ZM44,64.08c-1.25.21-1.15,1.62,0,2Zm.68,5.24a1,1,0,0,0,0-2Z"/><g id="Layer_1-3" data-name="Layer_1"><g id="_1421344023328" data-name=" 1421344023328"><path class="cls-1" d="M40.12,26A19.41,19.41,0,1,1,26,2.45,19.42,19.42,0,0,1,40.12,26Z"/><path class="cls-2" d="M29.85,18.52c.39-2.58-1.58-4-4.27-4.9l.87-3.5-2.13-.53L23.47,13l-1.71-.4.86-3.43-2.13-.53-.87,3.5-1.36-.32v0l-2.94-.73-.57,2.28s1.58.36,1.55.38a1.13,1.13,0,0,1,1,1.24l-1,4,.22.07L16.3,19l-1.4,5.59a.77.77,0,0,1-1,.51s-1.55-.39-1.55-.39l-1.06,2.44,2.77.69,1.52.39-.88,3.54,2.13.54.87-3.51c.58.16,1.15.31,1.7.44l-.87,3.49,2.13.53.88-3.53c3.64.68,6.37.41,7.52-2.88.93-2.65-.05-4.17-2-5.17a3.39,3.39,0,0,0,2.72-3.13ZM25,25.35c-.66,2.65-5.11,1.22-6.56.86l1.17-4.69c1.45.36,6.08,1.07,5.39,3.83Zm.66-6.87c-.6,2.41-4.31,1.19-5.51.89l1.06-4.26c1.2.3,5.08.86,4.45,3.37Z"/></g></g><circle class="cls-1" cx="66.85" cy="21.29" r="19.42"/><g id="Layer_2-2" data-name="Layer 2"><g id="Layer_1-2-2" data-name="Layer 1-2"><path class="cls-2" d="M60,21.19A2,2,0,0,0,62,23.33h.11a2,2,0,1,0-2-2.14Z"/><path class="cls-2" d="M52.47,20.67A.66.66,0,0,0,52.4,22a.66.66,0,1,0,.07-1.31Z"/><path class="cls-2" d="M59.91,9.41a.65.65,0,0,0,.28-.88A.66.66,0,0,0,59,9.12a.67.67,0,0,0,.89.29Z"/><path class="cls-2" d="M62,13a1,1,0,0,0,.44-1.36,1,1,0,0,0-1.81.91A1,1,0,0,0,62,13Z"/><path class="cls-2" d="M55,15.47a.83.83,0,1,0-.24-1.16h0A.83.83,0,0,0,55,15.47Z"/><path class="cls-2" d="M56.27,20.31a1,1,0,0,0-1.07,1,1,1,0,0,0,2,.12h0A1,1,0,0,0,56.27,20.31Z"/><path class="cls-2" d="M55.15,27.11a.84.84,0,1,0,1.12.37h0a.84.84,0,0,0-1.12-.37Z"/><path class="cls-2" d="M59.09,18.21a1.2,1.2,0,1,0-.34-1.65,1.19,1.19,0,0,0,.34,1.65Z"/><path class="cls-2" d="M71.58,12.92a1,1,0,0,0,1.12-1.7,1,1,0,0,0-1.41.3h0a1,1,0,0,0,.29,1.4Z"/><path class="cls-2" d="M73.66,9.34a.65.65,0,0,0,.91-.19.65.65,0,1,0-1.09-.72h0a.66.66,0,0,0,.18.91Z"/><path class="cls-2" d="M71.74,19.25a2,2,0,0,0-.23,4.06h.12a2,2,0,0,0,.11-4.06Z"/><path class="cls-2" d="M62.63,18.07a2,2,0,1,0-.21-.92A2.1,2.1,0,0,0,62.63,18.07Z"/><path class="cls-2" d="M78.54,15.47a.84.84,0,0,0,.36-1.13A.83.83,0,0,0,77.78,14a.84.84,0,1,0,.76,1.49Z"/><path class="cls-2" d="M73.4,16.11a1.19,1.19,0,1,0,1.6.53A1.19,1.19,0,0,0,73.4,16.11Z"/><path class="cls-2" d="M66.77,9A.83.83,0,1,0,66,8.15a.83.83,0,0,0,.79.88Z"/><path class="cls-2" d="M66.76,14.29a1.19,1.19,0,1,0,.13-2.38A1.19,1.19,0,0,0,65.63,13a1.2,1.2,0,0,0,1.13,1.26Z"/><path class="cls-2" d="M60.3,26.47a1.19,1.19,0,1,0-1.61-.53h0A1.21,1.21,0,0,0,60.3,26.47Z"/><path class="cls-2" d="M67.53,16a2,2,0,1,0,1.7-.92A2,2,0,0,0,67.53,16Z"/><path class="cls-2" d="M71.06,24.51a2,2,0,1,0-.9,2.73h0a2,2,0,0,0,.91-2.71Z"/><path class="cls-2" d="M74.6,24.37A1.2,1.2,0,1,0,74.94,26h0A1.18,1.18,0,0,0,74.6,24.37Z"/><path class="cls-2" d="M78.49,21.32a1,1,0,1,0-2-.11,1,1,0,0,0,1,1.07h0A1,1,0,0,0,78.49,21.32Z"/><path class="cls-2" d="M81.3,20.6a.66.66,0,1,0-.08,1.31.66.66,0,0,0,.08-1.31Z"/><path class="cls-2" d="M78.65,27.11a.83.83,0,1,0,.24,1.16A.84.84,0,0,0,78.65,27.11Z"/><path class="cls-2" d="M60,33.24a.66.66,0,0,0-.91.19.65.65,0,1,0,1.09.72h0A.66.66,0,0,0,60,33.24Z"/><path class="cls-2" d="M73.78,33.17a.65.65,0,0,0-.28.88.64.64,0,0,0,.88.29.66.66,0,1,0-.59-1.17Z"/><path class="cls-2" d="M66.16,26.55a2,2,0,1,0-2.81.59,2.09,2.09,0,0,0,1.11.33A2,2,0,0,0,66.16,26.55Z"/><path class="cls-2" d="M62.11,29.66A1,1,0,1,0,61,31.36a1,1,0,0,0,1.41-.29h0A1,1,0,0,0,62.11,29.66Z"/><path class="cls-2" d="M66.84,33.55a.83.83,0,1,0-.1,1.66.83.83,0,0,0,.1-1.66Z"/><path class="cls-2" d="M66.84,28.29a1.19,1.19,0,0,0-1.25,1.13,1.19,1.19,0,0,0,2.38.13,1.2,1.2,0,0,0-1.12-1.26Z"/><path class="cls-2" d="M71.72,29.58a1,1,0,1,0,1.37.45,1,1,0,0,0-1.37-.45Z"/></g></g></g></g></svg>