<svg xmlns="http://www.w3.org/2000/svg" xmlns:xlink="http://www.w3.org/1999/xlink" viewBox="0 0 37.24 38.97"><defs><style>.cls-1{fill:none;}.cls-2{isolation:isolate;}.cls-3{fill:url(#linear-gradient);}.cls-4{clip-path:url(#clip-path);}.cls-5{fill:url(#linear-gradient-2);}.cls-6{fill:#009884;}.cls-7{fill:url(#linear-gradient-3);}.cls-8{fill:url(#linear-gradient-4);}.cls-9{clip-path:url(#clip-path-2);}.cls-10{fill:#007868;}.cls-11{fill:url(#linear-gradient-5);}.cls-12{fill:#008a78;}.cls-13{fill:url(#linear-gradient-6);}.cls-14{clip-path:url(#clip-path-3);}.cls-15{clip-path:url(#clip-path-4);}.cls-16{fill:#008f7c;}.cls-17{fill:url(#linear-gradient-7);}.cls-18{fill:url(#linear-gradient-8);}</style><linearGradient id="linear-gradient" x1="-1.87" y1="16.58" x2="24.01" y2="19.26" gradientUnits="userSpaceOnUse"><stop offset="0" stop-color="#00e6c8"/><stop offset="1" stop-color="#2c2d38"/></linearGradient><clipPath id="clip-path" transform="translate(0 0)"><path class="cls-1" d="M22.53,23.51,17.7,25.17l-.5.14a4.34,4.34,0,0,1-.52.09,4.58,4.58,0,0,1-.53,0,5.07,5.07,0,0,1-.55,0,5.44,5.44,0,0,1-2.15-.73,6.26,6.26,0,0,1-1.74-1.51,7.29,7.29,0,0,1-1.6-4.55l5.11-1.32a7,7,0,0,0,.41,2.34,6.48,6.48,0,0,0,1.12,2,6.2,6.2,0,0,0,1.67,1.44,5.43,5.43,0,0,0,2.08.68l.53,0a4.36,4.36,0,0,0,.51,0l.5-.08Z"/></clipPath><linearGradient id="linear-gradient-2" x1="23.1" y1="25.9" x2="8.67" y2="17.8" xlink:href="#linear-gradient"/><linearGradient id="linear-gradient-3" x1="42.13" y1="30.87" x2="25.13" y2="27.29" xlink:href="#linear-gradient"/><linearGradient id="linear-gradient-4" x1="33.01" y1="42.36" x2="-12.13" y2="3.26" gradientUnits="userSpaceOnUse"><stop offset="0.3" stop-color="#00e6c8"/><stop offset="1" stop-color="#fff"/></linearGradient><clipPath id="clip-path-2" transform="translate(0 0)"><path class="cls-1" d="M1.39,13.48,6.8,12.43a2.14,2.14,0,0,0-.34.09,2.08,2.08,0,0,0-.32.12,2.2,2.2,0,0,0-.31.15L5.54,13,.1,14.05a2.23,2.23,0,0,1,.3-.2l.31-.16L1,13.57A2.25,2.25,0,0,1,1.39,13.48Z"/></clipPath><linearGradient id="linear-gradient-5" x1="40.07" y1="34.21" x2="-5.07" y2="-4.89" xlink:href="#linear-gradient-4"/><linearGradient id="linear-gradient-6" x1="41.79" y1="18.7" x2="16.23" y2="8.6" xlink:href="#linear-gradient"/><clipPath id="clip-path-3" transform="translate(0 0)"><path class="cls-1" d="M1.63,4.89l5.44-.66-.43.08-.4.14-.39.18-.36.24L0,5.55A3.41,3.41,0,0,1,.38,5.3c.12-.07.26-.13.39-.19A3.45,3.45,0,0,1,1.19,5,2.14,2.14,0,0,1,1.63,4.89Z"/></clipPath><clipPath id="clip-path-4" transform="translate(0 0)"><path class="cls-1" d="M3.56.46,9,0h.39L4,.45h-.4Z"/></clipPath><linearGradient id="linear-gradient-7" x1="44.51" y1="29.09" x2="-0.64" y2="-10.01" xlink:href="#linear-gradient-4"/><linearGradient id="linear-gradient-8" x1="46.58" y1="9.15" x2="16.42" y2="-0.05" xlink:href="#linear-gradient"/></defs><g id="Layer_2" data-name="Layer 2"><g id="Layer_1-2" data-name="Layer 1"><g class="cls-2"><path class="cls-3" d="M9.4,16.8H8.87l-.26,0-.25.05L3,18.14l.26-.05.27,0h.54l6,.54,5.11-1.32Z" transform="translate(0 0)"/><g class="cls-2"><g class="cls-4"><g class="cls-2"><path class="cls-5" d="M21.79,23.69l-.16,0-.17,0h-1l-.11,0h-.11l-.11,0-.11,0-.15,0-.15,0-.16,0-.15,0-.16-.06-.16-.06L19,23.34l-.16-.07-.19-.1-.19-.1L18.26,23l-.18-.11a6.36,6.36,0,0,1-1.17-1,7,7,0,0,1-1.69-4.53l-5.11,1.32a7.31,7.31,0,0,0,.22,1.76A7.24,7.24,0,0,0,10.94,22a7,7,0,0,0,.94,1.38,6,6,0,0,0,1.22,1.09l.18.12.19.12.19.11.2.09L14,25l.17.07.16.06.17.06.15.05.16,0,.16,0,.16,0,.11,0,.11,0h.12l.11,0h1l.17,0,.17,0,.17,0L22,23.66A1,1,0,0,1,21.79,23.69Z" transform="translate(0 0)"/><path class="cls-6" d="M17.11,25.33,22,23.66l.14,0,.15,0,.14,0,.14,0L17.7,25.17l-.15,0-.14,0-.15,0-.15,0" transform="translate(0 0)"/></g></g></g><path class="cls-1" d="M34.57,36.12l-4.32,2.37a4.65,4.65,0,0,0,.88-.65,4.28,4.28,0,0,0,.68-.89,4.72,4.72,0,0,0,.45-1.08,5.54,5.54,0,0,0,.17-1.24l4.25-2.2a4.1,4.1,0,0,1-.17,1.18,4.38,4.38,0,0,1-.43,1,4.22,4.22,0,0,1-.66.84A3.75,3.75,0,0,1,34.57,36.12Z" transform="translate(0 0)"/><path class="cls-7" d="M36.85,23.51s0-.08,0-.12,0-.24,0-.36a.19.19,0,0,1,0-.08c0-.12,0-.24-.08-.36a.14.14,0,0,0,0-.06.44.44,0,0,0,0-.1c0-.11-.07-.21-.11-.32a.19.19,0,0,0,0-.07s0,0,0,0-.1-.26-.16-.38l0-.06c0-.07-.07-.15-.11-.22l0-.06a3.76,3.76,0,0,0-.31-.5l0,0-.25-.33-.09-.09,0-.06-.07-.06c-.11-.12-.22-.23-.34-.34A.27.27,0,0,1,35,19.8a4.84,4.84,0,0,0-.46-.33l0,0a1.19,1.19,0,0,0-.15-.09l-.13-.08h0L34,19.18l-.16-.08-.06,0h0l-.05,0L33.6,19,33.47,19l-.1,0h0l-.12,0-.13,0-.13,0h0l-.09,0h-.09l-.09,0h-.18L26,18.2l-4.72,1.41,6.68.6.47.07h0a3.74,3.74,0,0,1,.45.12h0l.43.16h0a3.86,3.86,0,0,1,.41.2h0a3.48,3.48,0,0,1,.36.22l.09.06.28.21.07.06.31.28.07.08a1.8,1.8,0,0,1,.19.2c.12.14.24.29.35.44l0,0a5.84,5.84,0,0,1,.33.53l.15.29,0,.06c.06.14.12.27.17.41s0,.07,0,.11.07.23.11.34l0,.11c0,.14.07.29.09.44a.25.25,0,0,1,0,.08c0,.13,0,.25.05.38s0,.08,0,.13a3.49,3.49,0,0,1,0,.46l-.15,8.92a5.54,5.54,0,0,1-.17,1.24A4.72,4.72,0,0,1,31.81,37a4.28,4.28,0,0,1-.68.89,4.65,4.65,0,0,1-.88.65l4.32-2.37a3.75,3.75,0,0,0,.85-.63,4.22,4.22,0,0,0,.66-.84,4.38,4.38,0,0,0,.43-1,4.1,4.1,0,0,0,.17-1.18L36.86,24A3.23,3.23,0,0,0,36.85,23.51Z" transform="translate(0 0)"/><path class="cls-8" d="M28,20.21a4.51,4.51,0,0,1,1.8.56A5.07,5.07,0,0,1,31.26,22a5.71,5.71,0,0,1,1,1.71,5.41,5.41,0,0,1,.33,2l-.15,8.92a4.79,4.79,0,0,1-.4,1.88A4.28,4.28,0,0,1,31,38a4,4,0,0,1-1.48.84,4.11,4.11,0,0,1-1.79.13L4.22,35.55A3.91,3.91,0,0,1,2.69,35a5,5,0,0,1-1.25-1.15A5.66,5.66,0,0,1,.6,32.27a5.47,5.47,0,0,1-.32-1.81L.19,22.34a5.06,5.06,0,0,1,.28-1.77,4.39,4.39,0,0,1,.83-1.39,3.31,3.31,0,0,1,1.25-.88,3.17,3.17,0,0,1,1.54-.23l6,.54a7.29,7.29,0,0,0,1.6,4.55,6.26,6.26,0,0,0,1.74,1.51,5.44,5.44,0,0,0,2.15.73,4.82,4.82,0,0,0,4-1.43,5.66,5.66,0,0,0,1.25-1.9,7,7,0,0,0,.47-2.46Z" transform="translate(0 0)"/></g><g class="cls-2"><g class="cls-2"><g class="cls-9"><g class="cls-2"><path class="cls-10" d="M1.39,13.48,6.8,12.43a2.14,2.14,0,0,0-.34.09,2.08,2.08,0,0,0-.32.12,2.2,2.2,0,0,0-.31.15L5.54,13,.1,14.05a2.23,2.23,0,0,1,.3-.2l.31-.16L1,13.57a2.25,2.25,0,0,1,.35-.09" transform="translate(0 0)"/></g></g></g><path class="cls-11" d="M28.12,10.62a4.35,4.35,0,0,1,1.81.52,5.22,5.22,0,0,1,1.49,1.2,5.48,5.48,0,0,1,1,1.71,5.7,5.7,0,0,1,.34,2l0,1.49a5.62,5.62,0,0,0-.72-.81,5.39,5.39,0,0,0-.86-.65,4.14,4.14,0,0,0-1-.43,4.57,4.57,0,0,0-1-.21l-26.88-2a4,4,0,0,0-.6,0,3.47,3.47,0,0,0-.56.11,3.39,3.39,0,0,0-.53.2,3,3,0,0,0-.48.3v-.48a5.52,5.52,0,0,1,.29-1.8,4.48,4.48,0,0,1,.83-1.43A3.59,3.59,0,0,1,2.47,9.4,3.24,3.24,0,0,1,4,9.13Z" transform="translate(0 0)"/><g class="cls-2"><path class="cls-12" d="M28.12,10.62l4.5-1H33l-4.49,1h-.37" transform="translate(0 0)"/><path class="cls-13" d="M37,14.35a.49.49,0,0,0,0-.12c0-.12,0-.24,0-.36a.28.28,0,0,1,0-.09c0-.12,0-.24-.08-.36s0,0,0-.06l0-.1a3,3,0,0,0-.11-.32.14.14,0,0,0,0-.07v0c0-.13-.11-.26-.17-.39s0,0,0,0l-.12-.23,0-.05c-.1-.18-.2-.34-.31-.5l0,0-.25-.32-.1-.09,0-.06L35.58,11a2.73,2.73,0,0,0-.35-.33l-.08-.07a3.83,3.83,0,0,0-.46-.33l0,0-.15-.09-.13-.07h0L34.19,10,34,10l-.07,0H33.9l-.14-.05-.13,0-.1,0h0l-.12,0-.13,0-.13,0H33l-.35,0L9.37,8.27H8.65l-5.37.85.18,0H4l24.09,1.49a3.78,3.78,0,0,1,.47.06h0l.45.1h0l.42.15h0l.41.2h0l.36.22.1.06.27.21.08,0,.32.29.06.06.19.21a3.83,3.83,0,0,1,.36.44l0,0a4.59,4.59,0,0,1,.33.52c.05.1.11.2.15.3l0,.06a3,3,0,0,1,.17.41.36.36,0,0,1,0,.11,3.38,3.38,0,0,1,.11.34l0,.11c0,.14.07.29.1.44s0,.06,0,.09,0,.25,0,.38a.62.62,0,0,0,0,.13c0,.15,0,.31,0,.47l0,1.49L37,16.22l0-1.42A3.38,3.38,0,0,0,37,14.35Z" transform="translate(0 0)"/></g></g><g class="cls-2"><g class="cls-2"><g class="cls-14"><g class="cls-2"><path class="cls-10" d="M1.63,4.89l5.44-.66-.43.08-.4.14-.39.18-.36.24L0,5.55A3.41,3.41,0,0,1,.38,5.3c.12-.07.26-.13.39-.19A3.45,3.45,0,0,1,1.19,5a2.14,2.14,0,0,1,.44-.08" transform="translate(0 0)"/></g></g></g><g class="cls-2"><g class="cls-15"><g class="cls-2"><path class="cls-16" d="M3.56.46,9,0h.26L3.83.45H3.56" transform="translate(0 0)"/><path class="cls-12" d="M3.83.45,9.22,0h.13L4,.45H3.83" transform="translate(0 0)"/></g></g></g><path class="cls-17" d="M28.24,1.3a4.4,4.4,0,0,1,1.83.48A4.87,4.87,0,0,1,31.57,3a5.57,5.57,0,0,1,1,1.7,5.86,5.86,0,0,1,.34,2.06l0,1.52a5.14,5.14,0,0,0-.73-.81,4.87,4.87,0,0,0-.86-.63,4.38,4.38,0,0,0-1-.42,4.13,4.13,0,0,0-1-.18L2.19,4.87a3,3,0,0,0-.6,0A3.9,3.9,0,0,0,1,5a3.49,3.49,0,0,0-.53.22A3,3,0,0,0,0,5.55V5.07A5.46,5.46,0,0,1,.29,3.23a4.67,4.67,0,0,1,.84-1.48,3.84,3.84,0,0,1,1.26-1A3.45,3.45,0,0,1,4,.45Z" transform="translate(0 0)"/><g class="cls-2"><path class="cls-12" d="M28.24,1.3,32.77.78h.36l-4.51.52h-.38" transform="translate(0 0)"/><path class="cls-18" d="M37.23,5.46a.49.49,0,0,1,0-.12c0-.13,0-.25,0-.37a.19.19,0,0,0,0-.08c0-.13,0-.25-.08-.38a.43.43,0,0,1,0,0l0-.1c0-.11-.06-.22-.1-.33a.14.14,0,0,1,0-.07l0,0c0-.14-.1-.27-.16-.4l0,0-.12-.23,0,0a5.29,5.29,0,0,0-.32-.5l0,0A3.76,3.76,0,0,0,36,2.35l-.09-.1,0-.06-.13-.13L35.62,2a3.88,3.88,0,0,0-.31-.26l-.07-.05A2.48,2.48,0,0,0,35,1.49l-.1-.06-.06,0-.15-.09-.13-.07h0l-.16-.07-.16-.07-.07,0h0l0,0L33.92,1l-.13,0-.1,0h0l-.13,0-.13,0-.12,0h-.16l-.34,0L9.35,0,4,.45l24.28.85a3.56,3.56,0,0,1,.47.05h0a3.58,3.58,0,0,1,.45.09h0a3.52,3.52,0,0,1,.43.13h0l.42.19h0l.36.21.1.06.28.2.07.06c.11.09.22.18.32.28a.23.23,0,0,1,.07.07,1.8,1.8,0,0,1,.19.2,3.73,3.73,0,0,1,.36.43l0,0a4.72,4.72,0,0,1,.33.53,2.69,2.69,0,0,1,.16.29l0,.06c.06.14.12.27.17.41a.76.76,0,0,1,0,.11c0,.12.08.23.11.35l0,.11c0,.15.07.3.1.45s0,.06,0,.09,0,.25,0,.38,0,.09,0,.13,0,.32,0,.48l0,1.52,4.32-.89,0-1.44C37.24,5.76,37.24,5.61,37.23,5.46Z" transform="translate(0 0)"/></g></g></g></g></svg>