<svg xmlns="http://www.w3.org/2000/svg" viewBox="0 0 120.79 110"><defs><style>.cls-1{fill:#00e6c8;}.cls-2{fill:#fff;}</style></defs><g id="Layer_2" data-name="Layer 2"><g id="Layer_1-2" data-name="Layer 1"><path class="cls-1" d="M34.52,50.18A26.45,26.45,0,0,1,69.66,15L83.72,9.27A39,39,0,0,0,28.65,64.12Z"/><path class="cls-1" d="M88.36,13.93,82.49,27.87A26.45,26.45,0,0,1,47.35,63L33.29,68.77A39,39,0,0,0,88.36,13.93Z"/><circle class="cls-1" cx="58.51" cy="39.02" r="12.31"/><path class="cls-2" d="M117.9,96V93.85h1a.86.86,0,0,1,.61.2.68.68,0,0,1,.23.51.66.66,0,0,1-.14.41.83.83,0,0,1-.35.25l.49.76h-.52l-.45-.7h-.42V96Zm.46-1.13h.53a.48.48,0,0,0,.29-.07.28.28,0,0,0,.09-.22.26.26,0,0,0-.09-.21.48.48,0,0,0-.29-.08h-.53v.58Z"/><path class="cls-2" d="M118.72,97a2.08,2.08,0,1,1,2.07-2.08A2.08,2.08,0,0,1,118.72,97Zm0-3.67a1.6,1.6,0,1,0,1.59,1.59A1.59,1.59,0,0,0,118.72,93.35Z"/><path class="cls-2" d="M0,109.65V93.94H7a5.53,5.53,0,0,1,2,.35,4.62,4.62,0,0,1,1.56,1,4.4,4.4,0,0,1,1,1.48,4.75,4.75,0,0,1,.37,1.91,3.05,3.05,0,0,1-.36,1.45,3.32,3.32,0,0,1-1,1.15,4.17,4.17,0,0,1,1.62,1.58,4.24,4.24,0,0,1,.56,2.11,4.86,4.86,0,0,1-.37,1.94,4.21,4.21,0,0,1-1,1.48,4.58,4.58,0,0,1-1.54,1,5.22,5.22,0,0,1-1.91.34ZM3.49,97.08v3H6.9A1.56,1.56,0,0,0,8,99.62a1.42,1.42,0,0,0,.46-1.08A1.34,1.34,0,0,0,8,97.49a1.64,1.64,0,0,0-1.11-.41Zm0,6v3.41H7.72A1.46,1.46,0,0,0,8.84,106a1.77,1.77,0,0,0,.46-1.17,1.82,1.82,0,0,0-.46-1.19,1.42,1.42,0,0,0-1.12-.54Z"/><path class="cls-2" d="M14.38,93.94h3.27v15.71H14.38Z"/><path class="cls-2" d="M25.66,97.52a6.52,6.52,0,0,1,4.58,1.83,6.32,6.32,0,0,1,1.39,2,5.8,5.8,0,0,1,.51,2.42v5.89H29.09v-1.46a4.3,4.3,0,0,1-1.46,1.32,4,4,0,0,1-2,.49,6.47,6.47,0,0,1-2.52-.49,6.39,6.39,0,0,1-3.45-3.33,6,6,0,0,1,0-4.84,6.66,6.66,0,0,1,1.39-2,6.57,6.57,0,0,1,4.58-1.83Zm.07,9.51a3.21,3.21,0,0,0,1.27-.26,3.28,3.28,0,0,0,1-.7,3.41,3.41,0,0,0,.7-1,3.28,3.28,0,0,0,0-2.56,3.41,3.41,0,0,0-.7-1,3.13,3.13,0,0,0-1-.7,3,3,0,0,0-1.27-.26,3.09,3.09,0,0,0-1.28.26,3.13,3.13,0,0,0-1,.7,3.21,3.21,0,0,0-.69,1,3.17,3.17,0,0,0,0,2.56,3.21,3.21,0,0,0,.69,1,3.29,3.29,0,0,0,2.32,1Z"/><path class="cls-2" d="M33.56,107.29l5.52-6.63H33.71V97.87h9.5v2.35l-5.52,6.64h5.52v2.79H33.56Z"/><path class="cls-2" d="M50.56,97.52a6.46,6.46,0,0,1,6,3.82,5.8,5.8,0,0,1,.51,2.42v5.89H54v-1.46a4.25,4.25,0,0,1-1.47,1.32,4,4,0,0,1-2,.49,6.47,6.47,0,0,1-2.52-.49A6.61,6.61,0,0,1,46,108.17a6.48,6.48,0,0,1-1.39-2,6,6,0,0,1,0-4.84,6.51,6.51,0,0,1,6-3.82Zm.06,9.51a3.22,3.22,0,0,0,1.28-.26,3.28,3.28,0,0,0,1-.7,3.41,3.41,0,0,0,.7-1,3.28,3.28,0,0,0,0-2.56,3.41,3.41,0,0,0-.7-1,3.13,3.13,0,0,0-1-.7,3.26,3.26,0,0,0-2.55,0,3.13,3.13,0,0,0-1,.7,3.41,3.41,0,0,0-.7,1,3.28,3.28,0,0,0,0,2.56,3.41,3.41,0,0,0,.7,1,3.28,3.28,0,0,0,1,.7A3.21,3.21,0,0,0,50.62,107Z"/><path class="cls-2" d="M59,103.76a6.47,6.47,0,0,1,.45-2.42,6.13,6.13,0,0,1,1.26-2A5.76,5.76,0,0,1,62.64,98a6.05,6.05,0,0,1,2.47-.49h.44v3a3.24,3.24,0,0,0-2.31,1,3.24,3.24,0,0,0-.7,1,3.09,3.09,0,0,0-.26,1.28v5.89H59Z"/><path class="cls-2" d="M67,109.65V93.94h3.49v12.57h7.42v3.14Z"/><path class="cls-2" d="M85.12,97.52a6.41,6.41,0,0,1,2.53.49,6.55,6.55,0,0,1,2.06,1.34,6.46,6.46,0,0,1,1.38,2,5.8,5.8,0,0,1,.51,2.42v5.89h-3v-1.46a4.3,4.3,0,0,1-1.46,1.32,4,4,0,0,1-2,.49,6.54,6.54,0,0,1-2.52-.49,6.61,6.61,0,0,1-2.06-1.34,6.46,6.46,0,0,1-1.38-2,5.89,5.89,0,0,1,0-4.84A6.33,6.33,0,0,1,82.6,98,6.54,6.54,0,0,1,85.12,97.52Zm.07,9.51a3.26,3.26,0,0,0,2.31-5.58,3.27,3.27,0,1,0-4.62,4.62,3.24,3.24,0,0,0,2.31,1Z"/><path class="cls-2" d="M100.16,97.52a6.52,6.52,0,0,1,4.58,1.83,6.66,6.66,0,0,1,1.39,2,6,6,0,0,1,0,4.84,6.42,6.42,0,0,1-3.44,3.33,6.48,6.48,0,0,1-2.53.49,4,4,0,0,1-2-.49,4.3,4.3,0,0,1-1.46-1.32v1.46h-3V93.94H97v4.91a4.59,4.59,0,0,1,1.45-1A4.32,4.32,0,0,1,100.16,97.52Zm-.07,9.51a3.25,3.25,0,0,0,1.28-.26,3.4,3.4,0,0,0,1-.7,3.21,3.21,0,0,0,.69-1,3.17,3.17,0,0,0,0-2.56,3.23,3.23,0,0,0-1.73-1.73,3.09,3.09,0,0,0-1.28-.26,3,3,0,0,0-1.27.26,3.13,3.13,0,0,0-1,.7,3.41,3.41,0,0,0-.7,1,3.28,3.28,0,0,0,0,2.56,3.41,3.41,0,0,0,.7,1,3.28,3.28,0,0,0,1,.7A3.21,3.21,0,0,0,100.09,107Z"/><path class="cls-2" d="M113.8,102.71a5.13,5.13,0,0,1,1.27.31,4,4,0,0,1,1.12.65,3.45,3.45,0,0,1,.79,1,2.74,2.74,0,0,1,.31,1.32,3.67,3.67,0,0,1-.39,1.7,3.92,3.92,0,0,1-1.06,1.26,5,5,0,0,1-1.53.79,6.24,6.24,0,0,1-3.63,0,4.77,4.77,0,0,1-1.54-.79,3.61,3.61,0,0,1-1.45-3H111a1,1,0,0,0,.49,1,2.23,2.23,0,0,0,1,.26,2,2,0,0,0,1-.28.9.9,0,0,0,0-1.6,2.93,2.93,0,0,0-1.22-.43,7.71,7.71,0,0,1-1.67-.42,6.14,6.14,0,0,1-1.44-.76,4,4,0,0,1-1-1.06,2.32,2.32,0,0,1-.38-1.3,3.44,3.44,0,0,1,.37-1.61,3.61,3.61,0,0,1,1-1.22,4.65,4.65,0,0,1,1.5-.78,6.1,6.1,0,0,1,3.59,0,4.48,4.48,0,0,1,1.48.79,3.75,3.75,0,0,1,1,1.25,3.86,3.86,0,0,1,.37,1.7h-3.28a1.46,1.46,0,0,0-.12-.62,1,1,0,0,0-.31-.39,1.15,1.15,0,0,0-.45-.2,2.94,2.94,0,0,0-.51,0,1.91,1.91,0,0,0-1,.23.83.83,0,0,0-.43.82.69.69,0,0,0,.24.49,2.37,2.37,0,0,0,.63.41,5.35,5.35,0,0,0,.88.31A8.1,8.1,0,0,0,113.8,102.71Z"/></g></g></svg>