<svg xmlns="http://www.w3.org/2000/svg" viewBox="0 0 120 39.99"><defs><style>.cls-1{fill:#00e6c8;}.cls-2{fill:#fff;}</style></defs><g id="Layer_2" data-name="Layer 2"><g id="Layer_1-2" data-name="Layer 1"><path class="cls-1" d="M7.53,25.13a13.24,13.24,0,0,1,17.6-17.6l7.05-2.88A19.53,19.53,0,0,0,4.59,32.12Z"/><path class="cls-1" d="M34.5,7l-2.94,7A13.24,13.24,0,0,1,14,31.56l-7,2.89A19.53,19.53,0,0,0,34.5,7Z"/><circle class="cls-1" cx="19.55" cy="19.55" r="6.17"/><path class="cls-1" d="M97.13,27.46V24.2h1.55a1.3,1.3,0,0,1,.93.32,1,1,0,0,1,.35.78,1,1,0,0,1-.2.61,1.34,1.34,0,0,1-.54.39l.74,1.16h-.8l-.67-1.07h-.65v1.07Zm.71-1.72h.81a.68.68,0,0,0,.44-.12.42.42,0,0,0,.14-.32.42.42,0,0,0-.14-.33.68.68,0,0,0-.44-.12h-.81v.88Z"/><path class="cls-1" d="M98.38,29.06a3.18,3.18,0,1,1,3.18-3.18A3.18,3.18,0,0,1,98.38,29.06Zm0-5.61a2.43,2.43,0,1,0,2.44,2.43A2.43,2.43,0,0,0,98.38,23.45Z"/><path class="cls-2" d="M49.4,17.68V.76h7.52a5.88,5.88,0,0,1,2.13.37,5,5,0,0,1,1.68,1.05,4.78,4.78,0,0,1,1.11,1.6,5.2,5.2,0,0,1,.4,2.05,3.35,3.35,0,0,1-.39,1.57,3.61,3.61,0,0,1-1.07,1.23,4.52,4.52,0,0,1,1.74,1.7,4.6,4.6,0,0,1,.61,2.27,5.37,5.37,0,0,1-.4,2.09,4.69,4.69,0,0,1-1.11,1.6,5,5,0,0,1-1.65,1,5.58,5.58,0,0,1-2.06.37ZM53.16,4.14v3.2h3.67A1.73,1.73,0,0,0,58,6.88a1.52,1.52,0,0,0,.49-1.17A1.47,1.47,0,0,0,58,4.57a1.8,1.8,0,0,0-1.2-.43Zm0,6.49v3.66h4.56a1.55,1.55,0,0,0,1.2-.55,1.84,1.84,0,0,0,.49-1.26,1.92,1.92,0,0,0-.49-1.28,1.53,1.53,0,0,0-1.2-.57Z"/><path class="cls-2" d="M64.89.76h3.53V17.68H64.89Z"/><path class="cls-2" d="M77,4.61a7.07,7.07,0,0,1,4.94,2,7.28,7.28,0,0,1,1.49,2.14A6.27,6.27,0,0,1,84,11.33v6.35H80.73V16.1a4.41,4.41,0,0,1-1.58,1.42,4.21,4.21,0,0,1-2.11.53,6.86,6.86,0,0,1-2.71-.53,6.76,6.76,0,0,1-2.22-1.44,7,7,0,0,1-1.5-2.14,6.2,6.2,0,0,1-.55-2.61,6.27,6.27,0,0,1,.55-2.61,7.13,7.13,0,0,1,1.5-2.14,6.76,6.76,0,0,1,2.22-1.44A7,7,0,0,1,77,4.61Zm.07,10.25a3.54,3.54,0,0,0,1.38-.28,3.59,3.59,0,0,0,1.86-1.87,3.4,3.4,0,0,0,0-2.75,3.5,3.5,0,0,0-.75-1.12,3.62,3.62,0,0,0-1.11-.75,3.52,3.52,0,0,0-2.75,0A3.47,3.47,0,0,0,73.87,10a3.52,3.52,0,0,0,0,2.75,3.62,3.62,0,0,0,.75,1.11,3.51,3.51,0,0,0,2.49,1Z"/><path class="cls-2" d="M85.55,15.14,91.49,8H85.71V5H95.94V7.52l-6,7.15h6v3H85.55Z"/><path class="cls-2" d="M103.85,4.61a7.07,7.07,0,0,1,2.73.53,6.93,6.93,0,0,1,2.21,1.44,7.1,7.1,0,0,1,1.49,2.14,6.27,6.27,0,0,1,.55,2.61v6.35h-3.29V16.1A4.38,4.38,0,0,1,106,17.52a4.25,4.25,0,0,1-2.12.53,6.89,6.89,0,0,1-2.71-.53,6.83,6.83,0,0,1-3.71-3.58,6.2,6.2,0,0,1-.55-2.61,6.27,6.27,0,0,1,.55-2.61,7.1,7.1,0,0,1,1.49-2.14,7,7,0,0,1,2.22-1.44A7.08,7.08,0,0,1,103.85,4.61Zm.07,10.25a3.54,3.54,0,0,0,1.38-.28,3.56,3.56,0,0,0,1.87-1.87,3.52,3.52,0,0,0,0-2.75,3.67,3.67,0,0,0-.75-1.12,3.79,3.79,0,0,0-1.12-.75,3.52,3.52,0,0,0-2.75,0,3.79,3.79,0,0,0-1.12.75,3.67,3.67,0,0,0-.75,1.12,3.52,3.52,0,0,0,0,2.75,3.56,3.56,0,0,0,1.87,1.87A3.53,3.53,0,0,0,103.92,14.86Z"/><path class="cls-2" d="M113,11.33a7.12,7.12,0,0,1,.48-2.61,6.7,6.7,0,0,1,1.35-2.14,6.36,6.36,0,0,1,2.08-1.44,6.66,6.66,0,0,1,2.67-.53H120v3.2a3.33,3.33,0,0,0-1.37.28,3.55,3.55,0,0,0-1.12.75,3.67,3.67,0,0,0-.75,1.12,3.37,3.37,0,0,0-.29,1.37v6.35H113Z"/><path class="cls-1" d="M56.27,22.69a7,7,0,0,1,2.72.53,7,7,0,0,1,3.71,3.59,6.44,6.44,0,0,1,0,5.21A7,7,0,0,1,59,35.61a7,7,0,0,1-2.72.53,4.73,4.73,0,0,1-1.89-.38,5.15,5.15,0,0,1-1.57-1V40H49.29V29.41a6.19,6.19,0,0,1,.55-2.6,6.89,6.89,0,0,1,3.71-3.59A7.13,7.13,0,0,1,56.27,22.69ZM56.2,32.94a3.36,3.36,0,0,0,1.37-.28,3.47,3.47,0,0,0,1.87-1.87,3.52,3.52,0,0,0,0-2.75,3.47,3.47,0,0,0-1.87-1.87,3.52,3.52,0,0,0-2.75,0A3.56,3.56,0,0,0,53,28a3.52,3.52,0,0,0,0,2.75,3.56,3.56,0,0,0,1.87,1.87A3.37,3.37,0,0,0,56.2,32.94Z"/><path class="cls-1" d="M71.17,22.69a7,7,0,0,1,2.72.53,7,7,0,0,1,3.71,3.59,6.35,6.35,0,0,1,.55,2.6v6.35H74.86V34.19a4.59,4.59,0,0,1-1.58,1.42,4.32,4.32,0,0,1-2.11.53,7.13,7.13,0,0,1-2.72-.53A6.89,6.89,0,0,1,64.74,32a6.44,6.44,0,0,1,0-5.21,6.89,6.89,0,0,1,3.71-3.59A7.13,7.13,0,0,1,71.17,22.69Zm.07,10.25a3.36,3.36,0,0,0,1.37-.28,3.67,3.67,0,0,0,1.12-.75,3.79,3.79,0,0,0,.75-1.12,3.52,3.52,0,0,0,0-2.75,3.79,3.79,0,0,0-.75-1.12,3.67,3.67,0,0,0-1.12-.75,3.52,3.52,0,0,0-2.75,0,3.62,3.62,0,0,0-1.11.75A3.44,3.44,0,0,0,68,28a3.4,3.4,0,0,0,0,2.75,3.44,3.44,0,0,0,.75,1.12,3.62,3.62,0,0,0,1.11.75A3.37,3.37,0,0,0,71.24,32.94Z"/><path class="cls-1" d="M82.21,23.07l3.29,7.31,3.32-7.31h3.83L84.94,40H81l2.59-5.73L78.38,23.07Z"/></g></g></svg>